<svg width="20" height="20" viewBox="0 0 20 20" fill="none" xmlns="http://www.w3.org/2000/svg">
<path fill-rule="evenodd" clip-rule="evenodd" d="M10.9406 0.893868C11.3429 0.732983 11.8014 0.907301 11.9952 1.29485L13.662 4.62709L12.1713 5.37265L10.8476 2.72602L3.75 5.56413V14.4356L10.8476 17.2737L12.1713 14.6271L13.662 15.3727L11.9952 18.7049C11.8014 19.0924 11.3429 19.2667 10.9406 19.1058L2.60727 15.7737C2.29083 15.6471 2.08333 15.3407 2.08333 14.9998V4.99986C2.08333 4.65908 2.29083 4.35263 2.60726 4.22611L10.9406 0.893868Z" fill="black"/>
<path fill-rule="evenodd" clip-rule="evenodd" d="M10.7621 10.831L11.8396 11.9083L10.6611 13.0869L7.57166 9.99765L10.6611 6.90835L11.8396 8.0869L10.7621 9.16431H17.9169V10.831H10.7621Z" fill="black"/>
</svg>
