<svg width="20" height="20" viewBox="0 0 20 20" fill="none" xmlns="http://www.w3.org/2000/svg">
<path fill-rule="evenodd" clip-rule="evenodd" d="M11.7543 6.87763C12.2959 7.20275 12.7086 7.75056 12.7086 8.50918C12.7086 8.79209 12.7641 8.89976 12.7962 8.94259C12.8258 8.98201 12.8984 9.05043 13.1276 9.11143C13.7365 9.27359 14.2692 9.52601 14.7843 9.89176L16.4689 11.088C17.1315 11.5583 17.6166 11.9026 17.8849 12.4665C18.1266 12.9748 18.126 13.555 18.1254 14.318L18.1253 14.4833C18.1253 15.247 18.1254 15.8764 18.065 16.3766C18.002 16.8983 17.865 17.3683 17.5245 17.7582C17.0888 18.2569 16.3887 18.4164 15.8451 18.4826C15.35 18.5428 14.8228 18.5403 14.4249 18.5385C14.361 18.5382 14.3 18.5379 14.2434 18.5379H5.75726C5.68173 18.5379 5.59804 18.5388 5.50836 18.5397C5.12617 18.5434 4.63236 18.5483 4.17052 18.4953C3.62016 18.4323 2.9244 18.2713 2.47612 17.7582C2.13556 17.3683 1.99858 16.8983 1.93564 16.3766C1.87529 15.8764 1.87531 15.2469 1.87532 14.4832L1.87525 14.318C1.87456 13.555 1.87403 12.9748 2.11577 12.4665C2.38393 11.9026 2.86911 11.5583 3.53169 11.0881L5.21638 9.89176C5.73557 9.52301 6.26902 9.27234 6.8731 9.11143C7.10225 9.05043 7.17484 8.98201 7.20445 8.94259C7.23663 8.89976 7.29199 8.79209 7.29199 8.50918C7.29199 7.7784 7.72562 7.25216 8.24036 6.93525C8.7463 6.62379 9.38172 6.47333 9.98597 6.45941C10.5886 6.44553 11.2351 6.56599 11.7543 6.87763ZM7.7085 13.75C7.7085 12.4843 8.73455 11.4583 10.0001 11.4583C11.2658 11.4583 12.2918 12.4843 12.2918 13.75C12.2918 15.0157 11.2658 16.0417 10.0001 16.0417C8.73455 16.0417 7.7085 15.0157 7.7085 13.75Z" fill="black"/>
<path d="M5.62872 2.06381C8.45622 1.25654 11.5441 1.25654 14.3716 2.06381C15.5328 2.39532 16.3793 2.81115 17.152 3.31302C18.5294 4.2078 19.0876 5.79756 18.9334 7.27741C18.8881 7.71165 18.679 8.09661 18.3171 8.3293C17.9612 8.5581 17.5345 8.59052 17.1405 8.48102C17.0543 8.4571 16.9674 8.4331 16.8799 8.40894C16.5808 8.32634 16.2751 8.24194 15.9728 8.15225C15.3726 7.97421 14.8728 7.74285 14.5256 7.30246C14.188 6.87415 14.0679 6.33716 13.9881 5.74981L13.736 3.8928C13.7135 3.72721 13.7023 3.64441 13.6485 3.58642C13.5948 3.52843 13.5149 3.51136 13.355 3.47719C11.157 3.00763 8.84347 3.00763 6.64543 3.47719C6.48553 3.51136 6.40557 3.52843 6.35181 3.58642C6.29805 3.64441 6.28681 3.72721 6.26432 3.8928L6.01221 5.74981C5.93247 6.33716 5.81243 6.87415 5.47475 7.30246C5.12756 7.74285 4.62785 7.97421 4.02759 8.15225C3.72524 8.24194 3.41958 8.32633 3.12052 8.40894L3.1195 8.40919C3.03233 8.43327 2.94573 8.45719 2.85994 8.48102C2.46584 8.59052 2.03912 8.5581 1.68326 8.3293C1.3213 8.09661 1.1122 7.71165 1.06695 7.27741C0.912733 5.79756 1.47097 4.2078 2.84844 3.31302C3.62107 2.81115 4.46758 2.39532 5.62872 2.06381Z" fill="black"/>
</svg>
