<svg width="226" height="42" viewBox="0 0 226 42" fill="none" xmlns="http://www.w3.org/2000/svg">
<path d="M0 17.8165V16.9257C0.66587 16.9257 1.13378 16.8897 1.40373 16.8177C1.69167 16.7277 1.87163 16.5748 1.94362 16.3588C2.01561 16.1429 2.0516 15.8279 2.0516 15.414V2.45652C2.0516 2.00661 2.00661 1.67367 1.91663 1.45772C1.84464 1.24176 1.66467 1.09779 1.37673 1.0258C1.10678 0.935817 0.647873 0.890826 0 0.890826V0H7.80148V0.890826C7.1536 0.890826 6.68569 0.935817 6.39775 1.0258C6.1278 1.09779 5.95684 1.24176 5.88485 1.45772C5.81286 1.67367 5.77687 2.00661 5.77687 2.45652V7.93645H13.1194V2.45652C13.1194 2.00661 13.0834 1.67367 13.0115 1.45772C12.9395 1.24176 12.7595 1.09779 12.4716 1.0258C12.2016 0.935817 11.7517 0.890826 11.1218 0.890826V0H18.8963V0.890826C18.2484 0.890826 17.7805 0.935817 17.4926 1.0258C17.2226 1.09779 17.0517 1.24176 16.9797 1.45772C16.9077 1.67367 16.8717 2.00661 16.8717 2.45652V15.414C16.8717 15.8279 16.9077 16.1519 16.9797 16.3858C17.0697 16.6018 17.2586 16.7457 17.5466 16.8177C17.8345 16.8897 18.2844 16.9257 18.8963 16.9257V17.8165H11.1218V16.9257C11.7697 16.9257 12.2286 16.8897 12.4986 16.8177C12.7865 16.7277 12.9575 16.5748 13.0115 16.3588C13.0834 16.1429 13.1194 15.8279 13.1194 15.414V9.04324H5.77687V15.414C5.77687 15.8279 5.81286 16.1519 5.88485 16.3858C5.95684 16.6018 6.1368 16.7457 6.42475 16.8177C6.71269 16.8897 7.1716 16.9257 7.80148 16.9257V17.8165H0Z" fill="#89CFF0"/>
<path d="M29.7142 18.1405C27.1587 18.1405 25.3051 17.6366 24.1533 16.6288C23.0195 15.603 22.4526 13.9653 22.4526 11.7157V2.42953C22.4526 1.99761 22.4077 1.67367 22.3177 1.45772C22.2457 1.22376 22.0657 1.07079 21.7778 0.998805C21.5078 0.926819 21.0579 0.890826 20.428 0.890826V0H28.2025V0.890826C27.5906 0.890826 27.1407 0.926819 26.8528 0.998805C26.5648 1.07079 26.3759 1.21476 26.2859 1.43072C26.2139 1.64668 26.1779 1.97961 26.1779 2.42953V11.8237C26.1779 12.9575 26.3039 13.9113 26.5559 14.6851C26.8078 15.459 27.2037 16.0439 27.7436 16.4398C28.2835 16.8177 28.9674 17.0067 29.7952 17.0067C30.6411 17.0067 31.3249 16.8177 31.8468 16.4398C32.3867 16.0439 32.7826 15.468 33.0346 14.7121C33.3045 13.9383 33.4395 12.9755 33.4395 11.8237V2.42953C33.4395 1.97961 33.3945 1.64668 33.3045 1.43072C33.2325 1.21476 33.0526 1.07079 32.7646 0.998805C32.4767 0.926819 32.0178 0.890826 31.3879 0.890826V0H39.1624V0.890826C38.5325 0.890826 38.0736 0.926819 37.7857 0.998805C37.4977 1.07079 37.3177 1.22376 37.2458 1.45772C37.1738 1.67367 37.1378 1.99761 37.1378 2.42953V11.7157C37.1378 13.9473 36.5439 15.576 35.3561 16.6018C34.1684 17.6276 32.2877 18.1405 29.7142 18.1405Z" fill="#89CFF0"/>
<path d="M40.5712 17.8165V16.9257C41.2011 16.9257 41.66 16.8897 41.9479 16.8177C42.2358 16.7277 42.4158 16.5748 42.4878 16.3588C42.5778 16.1429 42.6228 15.8279 42.6228 15.414V2.42953C42.6228 1.97961 42.5778 1.64668 42.4878 1.43072C42.4158 1.21476 42.2358 1.07079 41.9479 0.998805C41.66 0.908823 41.2011 0.863832 40.5712 0.863832V0H48.7506C50.0283 0 51.1441 0.134974 52.0979 0.404921C53.0697 0.656872 53.8166 1.08879 54.3385 1.70067C54.8784 2.29455 55.1483 3.0954 55.1483 4.1032C55.1483 5.21898 54.8154 6.10981 54.1495 6.77568C53.5016 7.44155 52.5658 7.90946 51.3421 8.17941V8.2064C52.3319 8.36837 53.1687 8.65631 53.8526 9.07023C54.5364 9.48415 55.0493 10.024 55.3913 10.6899C55.7332 11.3378 55.9042 12.1206 55.9042 13.0385C55.9042 14.1902 55.6252 15.1171 55.0673 15.8189C54.5274 16.5208 53.7446 17.0337 52.7188 17.3576C51.711 17.6636 50.4872 17.8165 49.0475 17.8165H40.5712ZM48.3187 16.7637C49.1285 16.7637 49.7944 16.6288 50.3163 16.3588C50.8562 16.0709 51.2611 15.657 51.531 15.1171C51.801 14.5592 51.936 13.8753 51.936 13.0655C51.936 11.7337 51.576 10.6989 50.8562 9.96106C50.1363 9.2232 49.1285 8.85428 47.8328 8.85428H46.348V15.0361C46.348 15.6659 46.492 16.1159 46.78 16.3858C47.0679 16.6378 47.5808 16.7637 48.3187 16.7637ZM46.348 7.80148H47.7788C48.9845 7.80148 49.9023 7.50454 50.5322 6.91065C51.1621 6.31677 51.477 5.46194 51.477 4.34615C51.477 3.62629 51.3421 3.02341 51.0721 2.53751C50.8022 2.0516 50.3973 1.68267 49.8574 1.43072C49.3175 1.17877 48.6336 1.05279 47.8058 1.05279C47.4098 1.05279 47.1039 1.07979 46.8879 1.13378C46.69 1.18777 46.546 1.29575 46.456 1.45772C46.384 1.61969 46.348 1.84464 46.348 2.13258V7.80148Z" fill="#89CFF0"/>
<path d="M57.9701 17.8165V16.9257C58.618 16.9257 59.0769 16.8897 59.3468 16.8177C59.6348 16.7277 59.8148 16.5748 59.8867 16.3588C59.9767 16.1429 60.0217 15.8279 60.0217 15.414V2.42953C60.0217 1.97961 59.9767 1.64668 59.8867 1.43072C59.8148 1.21476 59.6348 1.07079 59.3468 0.998805C59.0589 0.926819 58.6 0.890826 57.9701 0.890826V0H71.6025V4.42714H70.7926C70.5767 3.56331 70.3247 2.88844 70.0368 2.40253C69.7668 1.89863 69.3799 1.5477 68.876 1.34974C68.3901 1.13378 67.6972 1.0258 66.7974 1.0258H64.7728C64.3589 1.0258 64.0799 1.09779 63.9359 1.24176C63.81 1.36773 63.747 1.60169 63.747 1.94362V7.90946H66.6084C67.1843 7.90946 67.6252 7.84647 67.9312 7.7205C68.2371 7.57652 68.4531 7.33357 68.579 6.99164C68.723 6.6497 68.84 6.1728 68.93 5.56092H69.6588V11.4188H68.93C68.84 10.8069 68.723 10.339 68.579 10.015C68.4531 9.67311 68.2371 9.43916 67.9312 9.31319C67.6252 9.16921 67.1843 9.09723 66.6084 9.09723H63.747V15.0091C63.747 15.495 63.801 15.8729 63.909 16.1429C64.0349 16.3948 64.3139 16.5658 64.7458 16.6558C65.1777 16.7457 65.8796 16.7907 66.8514 16.7907C67.8412 16.7907 68.633 16.6738 69.2269 16.4398C69.8388 16.1878 70.3247 15.7829 70.6846 15.225C71.0446 14.6671 71.3415 13.9023 71.5755 12.9305H72.3853L72.0614 17.8165H57.9701Z" fill="#89CFF0"/>
<path d="M74.3146 17.8165V16.9257C74.9624 16.9257 75.4304 16.8897 75.7183 16.8177C76.0062 16.7277 76.1862 16.5748 76.2582 16.3588C76.3302 16.1429 76.3662 15.8279 76.3662 15.414V2.42953C76.3662 1.99761 76.3212 1.67367 76.2312 1.45772C76.1592 1.22376 75.9793 1.07079 75.6913 0.998805C75.4034 0.926819 74.9444 0.890826 74.3146 0.890826V0H82.6559C84.0777 0 85.2474 0.170967 86.1653 0.5129C87.0831 0.854833 87.7669 1.34974 88.2169 1.99761C88.6668 2.64549 88.8917 3.43733 88.8917 4.37315C88.8917 5.25498 88.7028 6.01083 88.3248 6.64071C87.9649 7.25259 87.452 7.74749 86.7861 8.12542C86.1383 8.48535 85.4004 8.7283 84.5726 8.85428V8.90826C85.3824 9.08823 86.0123 9.36718 86.4622 9.7451C86.9121 10.105 87.254 10.5729 87.488 11.1488C87.722 11.7247 87.9019 12.4086 88.0279 13.2004L88.1899 14.0643C88.2978 14.6401 88.4418 15.144 88.6218 15.576C88.8017 16.0079 89.0537 16.3408 89.3776 16.5748C89.7016 16.8087 90.1245 16.9257 90.6464 16.9257V17.8165H85.9493C85.6974 17.6186 85.4634 17.3036 85.2474 16.8717C85.0495 16.4398 84.8785 15.9269 84.7345 15.333L83.9247 11.6077C83.7987 10.9239 83.5468 10.411 83.1688 10.069C82.7909 9.70911 82.224 9.52914 81.4682 9.52914H80.0914V15.414C80.0914 15.8279 80.1274 16.1519 80.1994 16.3858C80.2894 16.6018 80.4784 16.7457 80.7663 16.8177C81.0543 16.8897 81.4952 16.9257 82.089 16.9257V17.8165H74.3146ZM80.0914 8.44935H81.4412C82.6829 8.44935 83.5918 8.15241 84.1677 7.55853C84.7615 6.94665 85.0585 6.00183 85.0585 4.72408C85.0585 3.48232 84.7705 2.5555 84.1946 1.94362C83.6367 1.33174 82.7459 1.0258 81.5222 1.0258C80.9103 1.0258 80.5144 1.11578 80.3344 1.29575C80.1724 1.45772 80.0914 1.71867 80.0914 2.0786V8.44935Z" fill="#89CFF0"/>
<path d="M94.1017 17.8165V16.9257C94.8396 16.9257 95.3705 16.8897 95.6944 16.8177C96.0183 16.7457 96.2163 16.6108 96.2883 16.4128C96.3783 16.2148 96.4233 15.8909 96.4233 15.441V0.998805H95.1545C94.3447 0.998805 93.6968 1.12478 93.2109 1.37673C92.743 1.61069 92.374 1.99761 92.1041 2.53751C91.8521 3.0774 91.6362 3.77926 91.4562 4.6431H90.6464V0H105.925V4.6431H105.116C104.936 3.72527 104.702 3.00541 104.414 2.48352C104.144 1.94362 103.766 1.56569 103.28 1.34974C102.812 1.11578 102.182 0.998805 101.39 0.998805H100.149V15.441C100.149 15.8909 100.203 16.2238 100.31 16.4398C100.418 16.6378 100.634 16.7727 100.958 16.8447C101.3 16.8987 101.804 16.9257 102.47 16.9257V17.8165H94.1017Z" fill="#89CFF0"/>
<path d="M123.715 17.8165V16.9257H124.255C124.651 16.9257 124.858 16.8177 124.876 16.6018C124.912 16.3678 124.768 16.0079 124.444 15.522L120.017 8.66531L122.554 6.1818L127.305 13.1464C127.953 14.0823 128.493 14.8291 128.925 15.387C129.357 15.9269 129.771 16.3228 130.167 16.5748C130.563 16.8087 131.022 16.9257 131.544 16.9257V17.8165H123.715ZM113.673 17.8165V16.9257C114.321 16.9257 114.789 16.8897 115.077 16.8177C115.365 16.7457 115.545 16.6018 115.617 16.3858C115.689 16.1699 115.725 15.8459 115.725 15.414V2.45652C115.725 2.00661 115.68 1.67367 115.59 1.45772C115.518 1.24176 115.338 1.09779 115.05 1.0258C114.762 0.935817 114.303 0.890826 113.673 0.890826V0H121.475V0.890826C120.863 0.890826 120.413 0.935817 120.125 1.0258C119.837 1.09779 119.648 1.24176 119.558 1.45772C119.486 1.67367 119.45 2.00661 119.45 2.45652V15.414C119.45 15.8459 119.486 16.1699 119.558 16.3858C119.648 16.6018 119.837 16.7457 120.125 16.8177C120.413 16.8897 120.863 16.9257 121.475 16.9257V17.8165H113.673ZM118.991 10.5279V9.15122L125.524 2.02461C125.794 1.70067 125.92 1.43072 125.902 1.21476C125.884 0.998805 125.713 0.890826 125.389 0.890826H124.498V0H130.599V0.890826C130.023 0.890826 129.474 0.998805 128.952 1.21476C128.43 1.43072 127.899 1.76366 127.359 2.21357C126.838 2.64548 126.253 3.18538 125.605 3.83325L118.991 10.5279Z" fill="#89CFF0"/>
<path d="M131.841 17.8165V16.9257C132.345 16.9257 132.732 16.8897 133.002 16.8177C133.29 16.7277 133.515 16.5748 133.677 16.3588C133.839 16.1429 133.992 15.8369 134.136 15.441L139.913 0H142.369L147.903 15.576C148.047 15.9539 148.191 16.2418 148.335 16.4398C148.479 16.6378 148.677 16.7727 148.929 16.8447C149.181 16.8987 149.532 16.9257 149.982 16.9257V17.8165H142.261V16.9257H143.53C143.89 16.9257 144.115 16.8177 144.205 16.6018C144.295 16.3858 144.286 16.1159 144.178 15.7919L139.859 3.53631H139.778L135.567 15.8729C135.477 16.2328 135.477 16.5028 135.567 16.6828C135.657 16.8447 135.882 16.9257 136.242 16.9257H137.456V17.8165H131.841ZM136.781 11.3918L137.051 10.447H142.639L142.882 11.3918H136.781Z" fill="#89CFF0"/>
<path d="M151.397 17.8165V16.9257C152.045 16.9257 152.513 16.8897 152.801 16.8177C153.089 16.7277 153.269 16.5748 153.341 16.3588C153.413 16.1429 153.449 15.8279 153.449 15.414V2.45652C153.449 2.00661 153.404 1.67367 153.314 1.45772C153.242 1.24176 153.062 1.09779 152.774 1.0258C152.486 0.935817 152.027 0.890826 151.397 0.890826V0H159.199V0.890826C158.587 0.890826 158.137 0.935817 157.849 1.0258C157.561 1.09779 157.372 1.24176 157.282 1.45772C157.21 1.67367 157.174 2.00661 157.174 2.45652V15.414C157.174 15.8459 157.219 16.1788 157.309 16.4128C157.399 16.6288 157.579 16.7727 157.849 16.8447C158.137 16.8987 158.587 16.9257 159.199 16.9257V17.8165H151.397Z" fill="#89CFF0"/>
<path d="M161.388 17.8165V16.9257C162.036 16.9257 162.504 16.8897 162.792 16.8177C163.08 16.7277 163.26 16.5748 163.332 16.3588C163.404 16.1429 163.44 15.8279 163.44 15.414V2.42953C163.44 1.99761 163.395 1.67367 163.305 1.45772C163.233 1.22376 163.053 1.07079 162.765 0.998805C162.477 0.926819 162.018 0.890826 161.388 0.890826V0H169.73C171.151 0 172.321 0.170967 173.239 0.5129C174.157 0.854833 174.841 1.34974 175.291 1.99761C175.741 2.64549 175.966 3.43733 175.966 4.37315C175.966 5.25498 175.777 6.01083 175.399 6.64071C175.039 7.25259 174.526 7.74749 173.86 8.12542C173.212 8.48535 172.474 8.7283 171.646 8.85428V8.90826C172.456 9.08823 173.086 9.36718 173.536 9.7451C173.986 10.105 174.328 10.5729 174.562 11.1488C174.796 11.7247 174.976 12.4086 175.102 13.2004L175.264 14.0643C175.372 14.6401 175.516 15.144 175.696 15.576C175.876 16.0079 176.128 16.3408 176.451 16.5748C176.775 16.8087 177.198 16.9257 177.72 16.9257V17.8165H173.023C172.771 17.6186 172.537 17.3036 172.321 16.8717C172.123 16.4398 171.952 15.9269 171.808 15.333L170.998 11.6077C170.873 10.9239 170.621 10.411 170.243 10.069C169.865 9.70911 169.298 9.52914 168.542 9.52914H167.165V15.414C167.165 15.8279 167.201 16.1519 167.273 16.3858C167.363 16.6018 167.552 16.7457 167.84 16.8177C168.128 16.8897 168.569 16.9257 169.163 16.9257V17.8165H161.388ZM167.165 8.44935H168.515C169.757 8.44935 170.666 8.15241 171.241 7.55853C171.835 6.94665 172.132 6.00183 172.132 4.72408C172.132 3.48232 171.844 2.5555 171.268 1.94362C170.711 1.33174 169.82 1.0258 168.596 1.0258C167.984 1.0258 167.588 1.11578 167.408 1.29575C167.246 1.45772 167.165 1.71867 167.165 2.0786V8.44935Z" fill="#89CFF0"/>
<path d="M188.255 18.1405C185.7 18.1405 183.846 17.6366 182.695 16.6288C181.561 15.603 180.994 13.9653 180.994 11.7157V2.42953C180.994 1.99761 180.949 1.67367 180.859 1.45772C180.787 1.22376 180.607 1.07079 180.319 0.998805C180.049 0.926819 179.599 0.890826 178.969 0.890826V0H186.744V0.890826C186.132 0.890826 185.682 0.926819 185.394 0.998805C185.106 1.07079 184.917 1.21476 184.827 1.43072C184.755 1.64668 184.719 1.97961 184.719 2.42953V11.8237C184.719 12.9575 184.845 13.9113 185.097 14.6851C185.349 15.459 185.745 16.0439 186.285 16.4398C186.825 16.8177 187.509 17.0067 188.336 17.0067C189.182 17.0067 189.866 16.8177 190.388 16.4398C190.928 16.0439 191.324 15.468 191.576 14.7121C191.846 13.9383 191.981 12.9755 191.981 11.8237V2.42953C191.981 1.97961 191.936 1.64668 191.846 1.43072C191.774 1.21476 191.594 1.07079 191.306 0.998805C191.018 0.926819 190.559 0.890826 189.929 0.890826V0H197.704V0.890826C197.074 0.890826 196.615 0.926819 196.327 0.998805C196.039 1.07079 195.859 1.22376 195.787 1.45772C195.715 1.67367 195.679 1.99761 195.679 2.42953V11.7157C195.679 13.9473 195.085 15.576 193.897 16.6018C192.71 17.6276 190.829 18.1405 188.255 18.1405Z" fill="#89CFF0"/>
<path d="M209.154 17.8165V16.9257H209.694C210.09 16.9257 210.297 16.8177 210.315 16.6018C210.351 16.3678 210.207 16.0079 209.883 15.522L205.456 8.66531L207.994 6.1818L212.745 13.1464C213.393 14.0823 213.933 14.8291 214.364 15.387C214.796 15.9269 215.21 16.3228 215.606 16.5748C216.002 16.8087 216.461 16.9257 216.983 16.9257V17.8165H209.154ZM199.112 17.8165V16.9257C199.76 16.9257 200.228 16.8897 200.516 16.8177C200.804 16.7457 200.984 16.6018 201.056 16.3858C201.128 16.1699 201.164 15.8459 201.164 15.414V2.45652C201.164 2.00661 201.119 1.67367 201.029 1.45772C200.957 1.24176 200.777 1.09779 200.489 1.0258C200.201 0.935817 199.742 0.890826 199.112 0.890826V0H206.914V0.890826C206.302 0.890826 205.852 0.935817 205.564 1.0258C205.276 1.09779 205.087 1.24176 204.997 1.45772C204.925 1.67367 204.889 2.00661 204.889 2.45652V15.414C204.889 15.8459 204.925 16.1699 204.997 16.3858C205.087 16.6018 205.276 16.7457 205.564 16.8177C205.852 16.8897 206.302 16.9257 206.914 16.9257V17.8165H199.112ZM204.43 10.5279V9.15122L210.963 2.02461C211.233 1.70067 211.359 1.43072 211.341 1.21476C211.323 0.998805 211.152 0.890826 210.828 0.890826H209.937V0H216.038V0.890826C215.462 0.890826 214.913 0.998805 214.391 1.21476C213.87 1.43072 213.339 1.76366 212.799 2.21357C212.277 2.64548 211.692 3.18538 211.044 3.83325L204.43 10.5279Z" fill="#89CFF0"/>
<path d="M218.199 17.8165V16.9257C218.846 16.9257 219.314 16.8897 219.602 16.8177C219.89 16.7277 220.07 16.5748 220.142 16.3588C220.214 16.1429 220.25 15.8279 220.25 15.414V2.45652C220.25 2.00661 220.205 1.67367 220.115 1.45772C220.043 1.24176 219.863 1.09779 219.575 1.0258C219.287 0.935817 218.828 0.890826 218.199 0.890826V0H226V0.890826C225.388 0.890826 224.938 0.935817 224.65 1.0258C224.362 1.09779 224.173 1.24176 224.083 1.45772C224.011 1.67367 223.975 2.00661 223.975 2.45652V15.414C223.975 15.8459 224.02 16.1788 224.11 16.4128C224.2 16.6288 224.38 16.7727 224.65 16.8447C224.938 16.8987 225.388 16.9257 226 16.9257V17.8165H218.199Z" fill="#89CFF0"/>
<path d="M17.088 41.4816V40.9248H17.5098C17.8922 40.9248 18.1284 40.863 18.2184 40.7393C18.3084 40.6043 18.3534 40.3681 18.3534 40.0306V31.8647C18.3534 31.5835 18.3253 31.3755 18.269 31.2405C18.224 31.1055 18.1116 31.0155 17.9316 30.9705C17.7516 30.9255 17.4648 30.903 17.0711 30.903V30.3463H20.8167L23.8367 38.1579H23.8873L26.8736 30.3463H30.4673V30.903C30.0961 30.903 29.8149 30.9255 29.6237 30.9705C29.4437 31.0155 29.3256 31.1055 29.2694 31.2405C29.2244 31.3755 29.2019 31.5835 29.2019 31.8647V39.98C29.2019 40.2387 29.23 40.4412 29.2862 40.5874C29.3425 40.7224 29.4606 40.8124 29.6406 40.8574C29.8205 40.9023 30.0961 40.9248 30.4673 40.9248V41.4816H25.7094V40.9248C26.0919 40.9248 26.3674 40.9023 26.5362 40.8574C26.7049 40.8011 26.8117 40.7055 26.8567 40.5705C26.913 40.4356 26.9411 40.2387 26.9411 39.98V32.0335H26.9073L23.398 41.3635H22.6894L19.1126 32.0841H19.0957V40.0306C19.0957 40.4018 19.1407 40.6436 19.2307 40.7561C19.3207 40.8686 19.5681 40.9248 19.9731 40.9248H20.6142V41.4816H17.088Z" fill="white"/>
<path d="M31.837 41.4816V40.9248C32.242 40.9248 32.5288 40.9023 32.6975 40.8574C32.8775 40.8011 32.9899 40.7055 33.0349 40.5705C33.0912 40.4356 33.1193 40.2387 33.1193 39.98V31.8647C33.1193 31.5835 33.0912 31.3755 33.0349 31.2405C32.9899 31.1055 32.8775 31.0155 32.6975 30.9705C32.5175 30.9255 32.2307 30.903 31.837 30.903V30.3463H40.3572V33.1132H39.8511C39.7161 32.5733 39.5587 32.1516 39.3787 31.8479C39.21 31.5329 38.9681 31.3136 38.6532 31.1899C38.3495 31.0549 37.9165 30.9874 37.3541 30.9874H36.0887C35.83 30.9874 35.6557 31.0324 35.5657 31.1224C35.4869 31.2011 35.4476 31.3473 35.4476 31.561V35.2897H37.236C37.5959 35.2897 37.8715 35.2503 38.0627 35.1716C38.2539 35.0816 38.3889 34.9298 38.4676 34.7161C38.5576 34.5023 38.6307 34.2043 38.6869 33.8219H39.1425V37.483H38.6869C38.6307 37.1006 38.5576 36.8081 38.4676 36.6057C38.3889 36.392 38.2539 36.2458 38.0627 36.167C37.8715 36.077 37.5959 36.032 37.236 36.032H35.4476V39.727C35.4476 40.0306 35.4813 40.2668 35.5488 40.4356C35.6275 40.593 35.8019 40.6999 36.0718 40.7561C36.3418 40.8124 36.7804 40.8405 37.3878 40.8405C38.0065 40.8405 38.5014 40.7674 38.8725 40.6212C39.255 40.4637 39.5587 40.2106 39.7836 39.8619C40.0086 39.5132 40.1942 39.0352 40.3404 38.4278H40.8465L40.6441 41.4816H31.837Z" fill="white"/>
<path d="M41.9342 41.4816V40.9248H42.356C42.7384 40.9248 42.9746 40.863 43.0646 40.7393C43.1546 40.6043 43.1996 40.3681 43.1996 40.0306V31.8647C43.1996 31.5835 43.1715 31.3755 43.1152 31.2405C43.0702 31.1055 42.9578 31.0155 42.7778 30.9705C42.5978 30.9255 42.311 30.903 41.9173 30.903V30.3463H45.6629L48.6829 38.1579H48.7335L51.7198 30.3463H55.3135V30.903C54.9423 30.903 54.6611 30.9255 54.4699 30.9705C54.2899 31.0155 54.1718 31.1055 54.1156 31.2405C54.0706 31.3755 54.0481 31.5835 54.0481 31.8647V39.98C54.0481 40.2387 54.0762 40.4412 54.1325 40.5874C54.1887 40.7224 54.3068 40.8124 54.4868 40.8574C54.6667 40.9023 54.9423 40.9248 55.3135 40.9248V41.4816H50.5557V40.9248C50.9381 40.9248 51.2137 40.9023 51.3824 40.8574C51.5511 40.8011 51.6579 40.7055 51.7029 40.5705C51.7592 40.4356 51.7873 40.2387 51.7873 39.98V32.0335H51.7535L48.2442 41.3635H47.5356L43.9588 32.0841H43.942V40.0306C43.942 40.4018 43.9869 40.6436 44.0769 40.7561C44.1669 40.8686 44.4144 40.9248 44.8193 40.9248H45.4604V41.4816H41.9342Z" fill="white"/>
<path d="M61.6895 41.6672C60.441 41.6672 59.4119 41.431 58.602 40.9586C57.8034 40.4862 57.2073 39.8169 56.8136 38.9509C56.4199 38.0848 56.2231 37.0668 56.2231 35.8971C56.2231 35.0197 56.33 34.2268 56.5437 33.5182C56.7686 32.8095 57.1061 32.2022 57.556 31.696C58.0059 31.1899 58.5739 30.8074 59.26 30.5487C59.9461 30.2788 60.756 30.1438 61.6895 30.1438C62.6119 30.1438 63.4161 30.2788 64.1022 30.5487C64.7883 30.8074 65.3563 31.1899 65.8062 31.696C66.2561 32.2022 66.5879 32.8095 66.8017 33.5182C67.0266 34.2268 67.1391 35.0197 67.1391 35.8971C67.1391 37.0668 66.9423 38.0848 66.5486 38.9509C66.1549 39.8169 65.5532 40.4862 64.7433 40.9586C63.9447 41.431 62.9268 41.6672 61.6895 41.6672ZM61.6895 41.0261C62.0832 41.0261 62.4375 40.9586 62.7524 40.8236C63.0674 40.6774 63.343 40.4693 63.5792 40.1994C63.8154 39.9182 64.0066 39.5695 64.1528 39.1533C64.299 38.7371 64.4059 38.2591 64.4734 37.7192C64.5521 37.1793 64.5915 36.5719 64.5915 35.8971C64.5915 35.0535 64.5296 34.3168 64.4059 33.6869C64.2821 33.0458 64.1022 32.5115 63.866 32.0841C63.6298 31.6566 63.3261 31.3361 62.9549 31.1224C62.595 30.8974 62.1732 30.7849 61.6895 30.7849C61.1834 30.7849 60.7447 30.8974 60.3735 31.1224C60.0136 31.3361 59.7155 31.6566 59.4793 32.0841C59.2431 32.5115 59.0632 33.0458 58.9394 33.6869C58.827 34.3168 58.7707 35.0535 58.7707 35.8971C58.7707 36.5719 58.8045 37.1793 58.872 37.7192C58.9507 38.2591 59.0632 38.7371 59.2094 39.1533C59.3556 39.5695 59.5468 39.9182 59.783 40.1994C60.0192 40.4693 60.2948 40.6774 60.6097 40.8236C60.9247 40.9586 61.2846 41.0261 61.6895 41.0261Z" fill="white"/>
<path d="M67.8706 41.4816V40.9248C68.2756 40.9248 68.568 40.9023 68.748 40.8574C68.9279 40.8011 69.0404 40.7055 69.0854 40.5705C69.1304 40.4356 69.1529 40.2387 69.1529 39.98V31.8647C69.1529 31.5948 69.1248 31.3923 69.0685 31.2574C69.0235 31.1111 68.9111 31.0155 68.7311 30.9705C68.5511 30.9255 68.2643 30.903 67.8706 30.903V30.3463H73.084C73.9726 30.3463 74.7037 30.4531 75.2773 30.6668C75.851 30.8805 76.2784 31.1899 76.5596 31.5948C76.8408 31.9997 76.9814 32.4946 76.9814 33.0795C76.9814 33.6306 76.8633 34.103 76.627 34.4967C76.4021 34.8791 76.0815 35.1885 75.6654 35.4247C75.2604 35.6496 74.7993 35.8015 74.2819 35.8802V35.9139C74.788 36.0264 75.1817 36.2008 75.4629 36.437C75.7441 36.6619 75.9578 36.9544 76.104 37.3143C76.2502 37.6742 76.3627 38.1016 76.4415 38.5965L76.5427 39.1364C76.6102 39.4964 76.7002 39.8113 76.8126 40.0813C76.9251 40.3512 77.0826 40.5593 77.285 40.7055C77.4875 40.8517 77.7518 40.9248 78.078 40.9248V41.4816H75.1423C74.9849 41.3579 74.8386 41.161 74.7037 40.8911C74.58 40.6212 74.4731 40.3006 74.3831 39.9294L73.877 37.6011C73.7982 37.1737 73.6408 36.8531 73.4046 36.6394C73.1684 36.4145 72.814 36.302 72.3416 36.302H71.4812V39.98C71.4812 40.2387 71.5037 40.4412 71.5487 40.5874C71.6049 40.7224 71.723 40.8124 71.903 40.8574C72.0829 40.9023 72.3585 40.9248 72.7297 40.9248V41.4816H67.8706ZM71.4812 35.6271H72.3248C73.1009 35.6271 73.6689 35.4415 74.0288 35.0704C74.4 34.6879 74.5856 34.0974 74.5856 33.2988C74.5856 32.5227 74.4056 31.9435 74.0457 31.561C73.697 31.1786 73.1402 30.9874 72.3754 30.9874C71.993 30.9874 71.7455 31.0436 71.633 31.1561C71.5318 31.2574 71.4812 31.4204 71.4812 31.6454V35.6271Z" fill="white"/>
<path d="M78.9262 41.4816V40.9248C79.3311 40.9248 79.6236 40.9023 79.8035 40.8574C79.9835 40.8011 80.096 40.7055 80.141 40.5705C80.186 40.4356 80.2085 40.2387 80.2085 39.98V31.8816C80.2085 31.6004 80.1803 31.3923 80.1241 31.2574C80.0791 31.1224 79.9666 31.0324 79.7867 30.9874C79.6067 30.9312 79.3199 30.903 78.9262 30.903V30.3463H83.8021V30.903C83.4197 30.903 83.1385 30.9312 82.9586 30.9874C82.7786 31.0324 82.6605 31.1224 82.6042 31.2574C82.5593 31.3923 82.5368 31.6004 82.5368 31.8816V39.98C82.5368 40.25 82.5649 40.4581 82.6211 40.6043C82.6774 40.7393 82.7898 40.8292 82.9586 40.8742C83.1385 40.908 83.4197 40.9248 83.8021 40.9248V41.4816H78.9262Z" fill="white"/>
<path d="M84.5971 41.4816V40.9248C84.912 40.9248 85.1538 40.9023 85.3226 40.8574C85.5025 40.8011 85.6431 40.7055 85.7444 40.5705C85.8456 40.4356 85.9412 40.2444 86.0312 39.9969L89.6417 30.3463H91.1771L94.6357 40.0813C94.7257 40.3175 94.8157 40.4974 94.9057 40.6212C94.9957 40.7449 95.1194 40.8292 95.2769 40.8742C95.4343 40.908 95.6537 40.9248 95.9349 40.9248V41.4816H91.1096V40.9248H91.9025C92.1275 40.9248 92.2681 40.8574 92.3243 40.7224C92.3806 40.5874 92.3749 40.4187 92.3075 40.2162L89.608 32.5565H89.5574L86.9254 40.2668C86.8691 40.4918 86.8691 40.6605 86.9254 40.773C86.9816 40.8742 87.1222 40.9248 87.3472 40.9248H88.1064V41.4816H84.5971ZM87.6846 37.4661L87.8533 36.8756H91.3458L91.4976 37.4661H87.6846Z" fill="white"/>
<path d="M96.8195 41.4816V40.9248C97.2244 40.9248 97.5168 40.9023 97.6968 40.8574C97.8767 40.8124 97.9892 40.7224 98.0342 40.5874C98.0792 40.4524 98.1017 40.25 98.1017 39.98V31.8647C98.1017 31.5948 98.0736 31.3923 98.0173 31.2574C97.9723 31.1111 97.8599 31.0155 97.6799 30.9705C97.4999 30.9255 97.2131 30.903 96.8195 30.903V30.3463H101.746V30.903C101.341 30.903 101.043 30.9255 100.852 30.9705C100.672 31.0155 100.554 31.1111 100.497 31.2574C100.452 31.3923 100.43 31.5948 100.43 31.8647V39.6763C100.43 40.0475 100.475 40.3118 100.565 40.4693C100.655 40.6268 100.818 40.728 101.054 40.773C101.29 40.8067 101.634 40.8236 102.083 40.8236C102.691 40.8236 103.18 40.7505 103.551 40.6043C103.934 40.4581 104.237 40.2162 104.462 39.8788C104.699 39.5301 104.89 39.0577 105.036 38.4616H105.559L105.373 41.4816H96.8195Z" fill="white"/>
<path d="M116.396 41.6841C114.799 41.6841 113.64 41.3691 112.92 40.7393C112.212 40.0981 111.857 39.0746 111.857 37.6686V31.8647C111.857 31.5948 111.829 31.3923 111.773 31.2574C111.728 31.1111 111.616 31.0155 111.436 30.9705C111.267 30.9255 110.986 30.903 110.592 30.903V30.3463H115.451V30.903C115.069 30.903 114.787 30.9255 114.607 30.9705C114.428 31.0155 114.309 31.1055 114.253 31.2405C114.208 31.3755 114.186 31.5835 114.186 31.8647V37.7361C114.186 38.4447 114.264 39.0408 114.422 39.5245C114.579 40.0081 114.827 40.3737 115.164 40.6212C115.502 40.8574 115.929 40.9755 116.447 40.9755C116.975 40.9755 117.403 40.8574 117.729 40.6212C118.066 40.3737 118.314 40.0138 118.471 39.5414C118.64 39.0577 118.724 38.4559 118.724 37.7361V31.8647C118.724 31.5835 118.696 31.3755 118.64 31.2405C118.595 31.1055 118.482 31.0155 118.302 30.9705C118.122 30.9255 117.836 30.903 117.442 30.903V30.3463H122.301V30.903C121.907 30.903 121.62 30.9255 121.441 30.9705C121.261 31.0155 121.148 31.1111 121.103 31.2574C121.058 31.3923 121.036 31.5948 121.036 31.8647V37.6686C121.036 39.0633 120.664 40.0813 119.922 40.7224C119.18 41.3635 118.004 41.6841 116.396 41.6841Z" fill="white"/>
<path d="M131.542 41.5828L125.485 32.3371H125.451V40.0475C125.451 40.3625 125.513 40.5874 125.637 40.7224C125.761 40.8574 125.98 40.9248 126.295 40.9248H126.97V41.4816H123.444V40.9248H123.916C124.445 40.9248 124.709 40.6324 124.709 40.0475V31.8647C124.709 31.5835 124.681 31.3755 124.625 31.2405C124.58 31.1055 124.467 31.0155 124.287 30.9705C124.107 30.9255 123.82 30.903 123.427 30.903V30.3463H126.919L132.251 38.5459H132.301V31.7129C132.301 31.173 132.014 30.903 131.441 30.903H130.783V30.3463H134.258V30.903H133.82C133.302 30.903 133.044 31.173 133.044 31.7129V41.5828H131.542Z" fill="white"/>
<path d="M135.555 41.4816V40.9248C135.96 40.9248 136.253 40.9023 136.432 40.8574C136.612 40.8011 136.725 40.7055 136.77 40.5705C136.815 40.4356 136.837 40.2387 136.837 39.98V31.8816C136.837 31.6004 136.809 31.3923 136.753 31.2574C136.708 31.1224 136.596 31.0324 136.416 30.9874C136.236 30.9312 135.949 30.903 135.555 30.903V30.3463H140.431V30.903C140.049 30.903 139.767 30.9312 139.587 30.9874C139.408 31.0324 139.289 31.1224 139.233 31.2574C139.188 31.3923 139.166 31.6004 139.166 31.8816V39.98C139.166 40.25 139.194 40.4581 139.25 40.6043C139.306 40.7393 139.419 40.8292 139.587 40.8742C139.767 40.908 140.049 40.9248 140.431 40.9248V41.4816H135.555Z" fill="white"/>
<path d="M145.654 41.4816L142.28 31.7466C142.212 31.5217 142.128 31.353 142.027 31.2405C141.937 31.1168 141.813 31.0324 141.656 30.9874C141.509 30.9312 141.296 30.903 141.015 30.903V30.3463H145.772V30.903H145.047C144.833 30.903 144.693 30.9593 144.625 31.0718C144.558 31.173 144.563 31.3361 144.642 31.561L147.223 39.1364H147.291L149.72 31.696C149.81 31.4261 149.827 31.2292 149.771 31.1055C149.726 30.9705 149.585 30.903 149.349 30.903H148.573V30.3463H151.981V30.903C151.61 30.903 151.323 30.9762 151.121 31.1224C150.93 31.2574 150.766 31.5104 150.631 31.8816L147.19 41.4816H145.654Z" fill="white"/>
<path d="M152.262 41.4816V40.9248C152.667 40.9248 152.954 40.9023 153.123 40.8574C153.303 40.8011 153.415 40.7055 153.46 40.5705C153.516 40.4356 153.544 40.2387 153.544 39.98V31.8647C153.544 31.5835 153.516 31.3755 153.46 31.2405C153.415 31.1055 153.303 31.0155 153.123 30.9705C152.943 30.9255 152.656 30.903 152.262 30.903V30.3463H160.782V33.1132H160.276C160.141 32.5733 159.984 32.1516 159.804 31.8479C159.635 31.5329 159.393 31.3136 159.078 31.1899C158.775 31.0549 158.342 30.9874 157.779 30.9874H156.514C156.255 30.9874 156.081 31.0324 155.991 31.1224C155.912 31.2011 155.873 31.3473 155.873 31.561V35.2897H157.661C158.021 35.2897 158.297 35.2503 158.488 35.1716C158.679 35.0816 158.814 34.9298 158.893 34.7161C158.983 34.5023 159.056 34.2043 159.112 33.8219H159.568V37.483H159.112C159.056 37.1006 158.983 36.8081 158.893 36.6057C158.814 36.392 158.679 36.2458 158.488 36.167C158.297 36.077 158.021 36.032 157.661 36.032H155.873V39.727C155.873 40.0306 155.906 40.2668 155.974 40.4356C156.053 40.593 156.227 40.6999 156.497 40.7561C156.767 40.8124 157.206 40.8405 157.813 40.8405C158.432 40.8405 158.926 40.7674 159.298 40.6212C159.68 40.4637 159.984 40.2106 160.209 39.8619C160.434 39.5132 160.619 39.0352 160.765 38.4278H161.272L161.069 41.4816H152.262Z" fill="white"/>
<path d="M162.477 41.4816V40.9248C162.882 40.9248 163.175 40.9023 163.355 40.8574C163.535 40.8011 163.647 40.7055 163.692 40.5705C163.737 40.4356 163.76 40.2387 163.76 39.98V31.8647C163.76 31.5948 163.732 31.3923 163.675 31.2574C163.63 31.1111 163.518 31.0155 163.338 30.9705C163.158 30.9255 162.871 30.903 162.477 30.903V30.3463H167.691C168.579 30.3463 169.31 30.4531 169.884 30.6668C170.458 30.8805 170.885 31.1899 171.166 31.5948C171.447 31.9997 171.588 32.4946 171.588 33.0795C171.588 33.6306 171.47 34.103 171.234 34.4967C171.009 34.8791 170.688 35.1885 170.272 35.4247C169.867 35.6496 169.406 35.8015 168.889 35.8802V35.9139C169.395 36.0264 169.788 36.2008 170.07 36.437C170.351 36.6619 170.565 36.9544 170.711 37.3143C170.857 37.6742 170.969 38.1016 171.048 38.5965L171.149 39.1364C171.217 39.4964 171.307 39.8113 171.419 40.0813C171.532 40.3512 171.689 40.5593 171.892 40.7055C172.094 40.8517 172.359 40.9248 172.685 40.9248V41.4816H169.749C169.592 41.3579 169.445 41.161 169.31 40.8911C169.187 40.6212 169.08 40.3006 168.99 39.9294L168.484 37.6011C168.405 37.1737 168.247 36.8531 168.011 36.6394C167.775 36.4145 167.421 36.302 166.948 36.302H166.088V39.98C166.088 40.2387 166.11 40.4412 166.155 40.5874C166.212 40.7224 166.33 40.8124 166.51 40.8574C166.69 40.9023 166.965 40.9248 167.336 40.9248V41.4816H162.477ZM166.088 35.6271H166.932C167.708 35.6271 168.276 35.4415 168.636 35.0704C169.007 34.6879 169.192 34.0974 169.192 33.2988C169.192 32.5227 169.012 31.9435 168.652 31.561C168.304 31.1786 167.747 30.9874 166.982 30.9874C166.6 30.9874 166.352 31.0436 166.24 31.1561C166.139 31.2574 166.088 31.4204 166.088 31.6454V35.6271Z" fill="white"/>
<path d="M177.143 41.6841C176.637 41.6841 176.227 41.6391 175.912 41.5491C175.597 41.4704 175.338 41.3916 175.136 41.3129C174.945 41.2229 174.77 41.1779 174.613 41.1779C174.5 41.1779 174.399 41.2117 174.309 41.2791C174.23 41.3354 174.174 41.4029 174.14 41.4816H173.719L173.499 38.1241H174.005C174.095 38.4278 174.219 38.754 174.377 39.1027C174.534 39.4401 174.736 39.7607 174.984 40.0644C175.243 40.3568 175.546 40.5987 175.895 40.7899C176.244 40.9698 176.649 41.0598 177.11 41.0598C177.503 41.0598 177.852 40.9923 178.156 40.8574C178.459 40.7224 178.701 40.5143 178.881 40.2331C179.061 39.9407 179.151 39.5864 179.151 39.1702C179.151 38.6528 178.994 38.231 178.679 37.9048C178.364 37.5674 177.891 37.2806 177.262 37.0443L176.637 36.8081C176.086 36.5832 175.58 36.3301 175.119 36.0489C174.669 35.7677 174.309 35.4134 174.039 34.986C173.769 34.5586 173.634 34.0299 173.634 33.4001C173.634 32.7589 173.78 32.1965 174.073 31.7129C174.365 31.2292 174.781 30.8468 175.321 30.5656C175.872 30.2844 176.519 30.1438 177.262 30.1438C177.689 30.1438 178.038 30.1832 178.308 30.2619C178.589 30.3294 178.825 30.4025 179.016 30.4813C179.207 30.56 179.382 30.5994 179.539 30.5994C179.641 30.5994 179.714 30.5769 179.759 30.5319C179.815 30.4756 179.86 30.3913 179.894 30.2788H180.299L180.467 33.282H179.961C179.849 32.7308 179.674 32.2697 179.438 31.8985C179.202 31.5273 178.909 31.2461 178.561 31.0549C178.223 30.8524 177.835 30.7512 177.397 30.7512C176.812 30.7512 176.339 30.9143 175.979 31.2405C175.631 31.5554 175.456 31.9603 175.456 32.4552C175.456 32.8714 175.569 33.2088 175.794 33.4675C176.03 33.7262 176.317 33.94 176.654 34.1087C176.992 34.2661 177.312 34.4124 177.616 34.5473L178.426 34.851C178.943 35.0422 179.399 35.2841 179.792 35.5765C180.197 35.869 180.518 36.2233 180.754 36.6394C180.99 37.0556 181.108 37.5674 181.108 38.1748C181.108 38.6697 181.024 39.1308 180.855 39.5582C180.687 39.9857 180.433 40.3625 180.096 40.6886C179.77 41.0036 179.359 41.251 178.864 41.431C178.37 41.5997 177.796 41.6841 177.143 41.6841Z" fill="white"/>
<path d="M182.397 41.4816V40.9248C182.802 40.9248 183.095 40.9023 183.274 40.8574C183.454 40.8011 183.567 40.7055 183.612 40.5705C183.657 40.4356 183.679 40.2387 183.679 39.98V31.8816C183.679 31.6004 183.651 31.3923 183.595 31.2574C183.55 31.1224 183.438 31.0324 183.258 30.9874C183.078 30.9312 182.791 30.903 182.397 30.903V30.3463H187.273V30.903C186.891 30.903 186.609 30.9312 186.43 30.9874C186.25 31.0324 186.131 31.1224 186.075 31.2574C186.03 31.3923 186.008 31.6004 186.008 31.8816V39.98C186.008 40.25 186.036 40.4581 186.092 40.6043C186.148 40.7393 186.261 40.8292 186.43 40.8742C186.609 40.908 186.891 40.9248 187.273 40.9248V41.4816H182.397Z" fill="white"/>
<path d="M190.464 41.4816V40.9248C190.925 40.9248 191.257 40.9023 191.459 40.8574C191.662 40.8124 191.785 40.728 191.83 40.6043C191.887 40.4806 191.915 40.2781 191.915 39.9969V30.9705H191.122C190.616 30.9705 190.211 31.0493 189.907 31.2067C189.615 31.353 189.384 31.5948 189.215 31.9322C189.058 32.2697 188.923 32.7083 188.81 33.2482H188.304V30.3463H197.854V33.2482H197.348C197.235 32.6746 197.089 32.2247 196.909 31.8985C196.74 31.561 196.504 31.3248 196.2 31.1899C195.908 31.0436 195.514 30.9705 195.019 30.9705H194.243V39.9969C194.243 40.2781 194.277 40.4862 194.344 40.6212C194.412 40.7449 194.547 40.8292 194.749 40.8742C194.963 40.908 195.278 40.9248 195.694 40.9248V41.4816H190.464Z" fill="white"/>
<path d="M201.101 41.4816V40.9248C201.55 40.9248 201.871 40.9023 202.062 40.8574C202.265 40.8011 202.388 40.7055 202.433 40.5705C202.49 40.4243 202.518 40.2219 202.518 39.9632V37.1625L199.801 31.7466C199.7 31.5329 199.593 31.3642 199.481 31.2405C199.38 31.1168 199.245 31.0324 199.076 30.9874C198.918 30.9312 198.699 30.903 198.418 30.903V30.3463H203.361V30.903H202.602C202.388 30.903 202.259 30.9593 202.214 31.0718C202.18 31.1842 202.214 31.3586 202.315 31.5948L204.424 36.0995H204.458L206.449 31.7129C206.539 31.5217 206.578 31.3698 206.567 31.2574C206.556 31.1449 206.511 31.0605 206.432 31.0043C206.353 30.9368 206.246 30.903 206.111 30.903H205.42V30.3463H208.929V30.903C208.625 30.903 208.383 30.9312 208.204 30.9874C208.024 31.0436 207.872 31.1392 207.748 31.2742C207.624 31.4092 207.495 31.606 207.36 31.8647L204.762 36.9769V39.9632C204.762 40.2331 204.795 40.4412 204.863 40.5874C204.93 40.7224 205.065 40.8124 205.268 40.8574C205.482 40.9023 205.808 40.9248 206.246 40.9248V41.4816H201.101Z" fill="white"/>
</svg>
