<svg width="212" height="40" viewBox="0 0 212 40" fill="none" xmlns="http://www.w3.org/2000/svg">
<path d="M0 16.7128V15.8772C0.624621 15.8772 1.06354 15.8434 1.31677 15.7759C1.58687 15.6915 1.75569 15.548 1.82322 15.3454C1.89074 15.1428 1.92451 14.8474 1.92451 14.4591V2.30434C1.92451 1.8823 1.8823 1.56999 1.7979 1.36741C1.73037 1.16483 1.56155 1.02978 1.29145 0.962252C1.03822 0.877844 0.607739 0.83564 0 0.83564V0H7.31819V0.83564C6.71045 0.83564 6.27153 0.877844 6.00143 0.962252C5.7482 1.02978 5.58782 1.16483 5.5203 1.36741C5.45277 1.56999 5.41901 1.8823 5.41901 2.30434V7.4448H12.3067V2.30434C12.3067 1.8823 12.273 1.56999 12.2054 1.36741C12.1379 1.16483 11.9691 1.02978 11.699 0.962252C11.4458 0.877844 11.0237 0.83564 10.4329 0.83564V0H17.7257V0.83564C17.118 0.83564 16.6791 0.877844 16.409 0.962252C16.1557 1.02978 15.9954 1.16483 15.9278 1.36741C15.8603 1.56999 15.8265 1.8823 15.8265 2.30434V14.4591C15.8265 14.8474 15.8603 15.1513 15.9278 15.3707C16.0122 15.5733 16.1895 15.7084 16.4596 15.7759C16.7297 15.8434 17.1518 15.8772 17.7257 15.8772V16.7128H10.4329V15.8772C11.0406 15.8772 11.4711 15.8434 11.7243 15.7759C11.9944 15.6915 12.1548 15.548 12.2054 15.3454C12.273 15.1428 12.3067 14.8474 12.3067 14.4591V8.48302H5.41901V14.4591C5.41901 14.8474 5.45277 15.1513 5.5203 15.3707C5.58782 15.5733 5.75664 15.7084 6.02675 15.7759C6.29685 15.8434 6.72734 15.8772 7.31819 15.8772V16.7128H0Z" fill="#008B48"/>
<path d="M27.8735 17.0167C25.4763 17.0167 23.7375 16.544 22.6571 15.5986C21.5935 14.6364 21.0618 13.1001 21.0618 10.9899V2.27902C21.0618 1.87386 21.0196 1.56999 20.9352 1.36741C20.8676 1.14795 20.6988 1.00446 20.4287 0.93693C20.1755 0.869404 19.7534 0.83564 19.1626 0.83564V0H26.4554V0.83564C25.8815 0.83564 25.4594 0.869404 25.1893 0.93693C24.9192 1.00446 24.742 1.13951 24.6576 1.34209C24.59 1.54467 24.5563 1.85698 24.5563 2.27902V11.0912C24.5563 12.1548 24.6744 13.0495 24.9108 13.7754C25.1471 14.5013 25.5185 15.05 26.025 15.4214C26.5314 15.7759 27.1729 15.9531 27.9495 15.9531C28.7429 15.9531 29.3844 15.7759 29.874 15.4214C30.3804 15.05 30.7518 14.5098 30.9882 13.8007C31.2414 13.0748 31.368 12.1717 31.368 11.0912V2.27902C31.368 1.85698 31.3258 1.54467 31.2414 1.34209C31.1739 1.13951 31.0051 1.00446 30.7349 0.93693C30.4648 0.869404 30.0344 0.83564 29.4435 0.83564V0H36.7364V0.83564C36.1455 0.83564 35.715 0.869404 35.4449 0.93693C35.1748 1.00446 35.006 1.14795 34.9385 1.36741C34.871 1.56999 34.8372 1.87386 34.8372 2.27902V10.9899C34.8372 13.0833 34.2801 14.611 33.1659 15.5733C32.0517 16.5356 30.2876 17.0167 27.8735 17.0167Z" fill="#008B48"/>
<path d="M38.0579 16.7128V15.8772C38.6487 15.8772 39.0792 15.8434 39.3493 15.7759C39.6194 15.6915 39.7883 15.548 39.8558 15.3454C39.9402 15.1428 39.9824 14.8474 39.9824 14.4591V2.27902C39.9824 1.85698 39.9402 1.54467 39.8558 1.34209C39.7883 1.13951 39.6194 1.00446 39.3493 0.93693C39.0792 0.852522 38.6487 0.810318 38.0579 0.810318V0H45.7306C46.9292 0 47.9759 0.126612 48.8706 0.379836C49.7822 0.616179 50.4828 1.02134 50.9723 1.59531C51.4788 2.15241 51.732 2.90364 51.732 3.84901C51.732 4.89567 51.4197 5.73131 50.7951 6.35593C50.1874 6.98055 49.3095 7.41948 48.1616 7.6727V7.69802C49.09 7.84996 49.875 8.12006 50.5165 8.50834C51.158 8.89662 51.6392 9.40307 51.9599 10.0277C52.2807 10.6354 52.4411 11.3698 52.4411 12.2307C52.4411 13.3112 52.1794 14.1806 51.6561 14.839C51.1496 15.4973 50.4153 15.9785 49.453 16.2823C48.5076 16.5693 47.3597 16.7128 46.0091 16.7128H38.0579ZM45.3254 15.7252C46.0851 15.7252 46.7097 15.5986 47.1993 15.3454C47.7058 15.0753 48.0856 14.687 48.3388 14.1806C48.592 13.6572 48.7186 13.0157 48.7186 12.2561C48.7186 11.0068 48.381 10.0361 47.7058 9.34398C47.0305 8.65183 46.0851 8.30576 44.8696 8.30576H43.4769V14.1046C43.4769 14.6955 43.612 15.1175 43.8821 15.3707C44.1522 15.6071 44.6333 15.7252 45.3254 15.7252ZM43.4769 7.31819H44.819C45.9501 7.31819 46.811 7.03964 47.4019 6.48254C47.9927 5.92545 48.2882 5.12357 48.2882 4.07691C48.2882 3.40165 48.1616 2.83611 47.9083 2.38031C47.6551 1.9245 47.2753 1.57843 46.7688 1.34209C46.2624 1.10575 45.6209 0.987574 44.8443 0.987574C44.4729 0.987574 44.1859 1.0129 43.9834 1.06354C43.7977 1.11419 43.6626 1.21548 43.5782 1.36741C43.5107 1.51935 43.4769 1.73037 43.4769 2.00047V7.31819Z" fill="#008B48"/>
<path d="M54.379 16.7128V15.8772C54.9868 15.8772 55.4172 15.8434 55.6705 15.7759C55.9406 15.6915 56.1094 15.548 56.1769 15.3454C56.2613 15.1428 56.3035 14.8474 56.3035 14.4591V2.27902C56.3035 1.85698 56.2613 1.54467 56.1769 1.34209C56.1094 1.13951 55.9406 1.00446 55.6705 0.93693C55.4004 0.869404 54.9699 0.83564 54.379 0.83564V0H67.1669V4.15288H66.4072C66.2046 3.34256 65.9683 2.7095 65.6982 2.2537C65.4449 1.78101 65.082 1.45182 64.6093 1.26612C64.1535 1.06354 63.5035 0.962252 62.6595 0.962252H60.7603C60.372 0.962252 60.1103 1.02978 59.9753 1.16483C59.8571 1.283 59.798 1.50246 59.798 1.82322V7.41948H62.4822C63.0224 7.41948 63.436 7.36039 63.723 7.24222C64.01 7.10716 64.2126 6.87926 64.3307 6.55851C64.4658 6.23776 64.5755 5.7904 64.6599 5.21642H65.3436V10.7114H64.6599C64.5755 10.1374 64.4658 9.69849 64.3307 9.39463C64.2126 9.07387 64.01 8.85441 63.723 8.73624C63.436 8.60119 63.0224 8.53366 62.4822 8.53366H59.798V14.0793C59.798 14.5351 59.8487 14.8896 59.95 15.1428C60.0681 15.3792 60.3298 15.5395 60.735 15.6239C61.1401 15.7084 61.7985 15.7506 62.7101 15.7506C63.6386 15.7506 64.3814 15.6408 64.9385 15.4214C65.5125 15.185 65.9683 14.8052 66.3059 14.2819C66.6435 13.7585 66.9221 13.0411 67.1415 12.1294H67.9012L67.5973 16.7128H54.379Z" fill="#008B48"/>
<path d="M69.711 16.7128V15.8772C70.3187 15.8772 70.7576 15.8434 71.0277 15.7759C71.2978 15.6915 71.4667 15.548 71.5342 15.3454C71.6017 15.1428 71.6355 14.8474 71.6355 14.4591V2.27902C71.6355 1.87386 71.5933 1.56999 71.5089 1.36741C71.4413 1.14795 71.2725 1.00446 71.0024 0.93693C70.7323 0.869404 70.3018 0.83564 69.711 0.83564V0H77.5356C78.8693 0 79.9666 0.160375 80.8275 0.481126C81.6885 0.801877 82.33 1.26612 82.752 1.87386C83.1741 2.4816 83.3851 3.22439 83.3851 4.10224C83.3851 4.92943 83.2079 5.63846 82.8533 6.22932C82.5157 6.8033 82.0346 7.26754 81.41 7.62205C80.8022 7.95969 80.1101 8.18759 79.3335 8.30576V8.35641C80.0932 8.52522 80.684 8.78689 81.1061 9.1414C81.5281 9.47903 81.8489 9.91796 82.0683 10.4582C82.2878 10.9984 82.4566 11.6399 82.5748 12.3827L82.7267 13.193C82.828 13.7332 82.9631 14.2059 83.1319 14.611C83.3007 15.0162 83.537 15.3285 83.8409 15.548C84.1448 15.7674 84.5415 15.8772 85.0311 15.8772V16.7128H80.625C80.3886 16.5271 80.1692 16.2317 79.9666 15.8265C79.7809 15.4214 79.6205 14.9402 79.4855 14.3831L78.7258 10.8887C78.6076 10.2471 78.3713 9.76602 78.0167 9.44527C77.6622 9.10764 77.1305 8.93882 76.4214 8.93882H75.13V14.4591C75.13 14.8474 75.1637 15.1513 75.2313 15.3707C75.3157 15.5733 75.4929 15.7084 75.763 15.7759C76.0332 15.8434 76.4468 15.8772 77.0038 15.8772V16.7128H69.711ZM75.13 7.92592H76.3961C77.5609 7.92592 78.4135 7.64738 78.9537 7.09028C79.5108 6.51631 79.7893 5.63002 79.7893 4.43143C79.7893 3.26659 79.5192 2.39719 78.979 1.82322C78.4557 1.24924 77.62 0.962252 76.4721 0.962252C75.8981 0.962252 75.5267 1.04666 75.3579 1.21548C75.206 1.36741 75.13 1.6122 75.13 1.94983V7.92592Z" fill="#008B48"/>
<path d="M88.2723 16.7128V15.8772C88.9645 15.8772 89.4625 15.8434 89.7664 15.7759C90.0702 15.7084 90.2559 15.5817 90.3235 15.396C90.4079 15.2103 90.4501 14.9065 90.4501 14.4844V0.93693H89.2599C88.5002 0.93693 87.8925 1.0551 87.4367 1.29144C86.9978 1.51091 86.6517 1.87386 86.3985 2.38031C86.1621 2.88676 85.9596 3.54514 85.7907 4.35546H85.0311V0H99.3636V4.35546H98.6039C98.4351 3.4945 98.2156 2.81923 97.9455 2.32966C97.6923 1.82322 97.3378 1.4687 96.882 1.26612C96.4431 1.04666 95.8522 0.93693 95.1094 0.93693H93.9446V14.4844C93.9446 14.9065 93.9952 15.2188 94.0965 15.4214C94.1978 15.6071 94.4004 15.7337 94.7043 15.8012C95.025 15.8518 95.4977 15.8772 96.1223 15.8772V16.7128H88.2723Z" fill="#008B48"/>
<path d="M116.051 16.7128V15.8772H116.558C116.929 15.8772 117.123 15.7759 117.14 15.5733C117.174 15.3538 117.039 15.0162 116.735 14.5604L112.582 8.1285L114.962 5.79884L119.419 12.332C120.027 13.2099 120.533 13.9105 120.939 14.4338C121.344 14.9402 121.732 15.3116 122.103 15.548C122.475 15.7674 122.905 15.8772 123.395 15.8772V16.7128H116.051ZM106.631 16.7128V15.8772C107.239 15.8772 107.678 15.8434 107.948 15.7759C108.218 15.7084 108.387 15.5733 108.455 15.3707C108.522 15.1681 108.556 14.8643 108.556 14.4591V2.30434C108.556 1.8823 108.514 1.56999 108.429 1.36741C108.362 1.16483 108.193 1.02978 107.923 0.962252C107.653 0.877844 107.222 0.83564 106.631 0.83564V0H113.95V0.83564C113.376 0.83564 112.954 0.877844 112.683 0.962252C112.413 1.02978 112.236 1.16483 112.152 1.36741C112.084 1.56999 112.05 1.8823 112.05 2.30434V14.4591C112.05 14.8643 112.084 15.1681 112.152 15.3707C112.236 15.5733 112.413 15.7084 112.683 15.7759C112.954 15.8434 113.376 15.8772 113.95 15.8772V16.7128H106.631ZM111.62 9.87575V8.58431L117.748 1.89918C118.001 1.59531 118.119 1.34209 118.102 1.13951C118.086 0.93693 117.925 0.83564 117.621 0.83564H116.786V0H122.509V0.83564C121.968 0.83564 121.453 0.93693 120.964 1.13951C120.474 1.34209 119.976 1.6544 119.47 2.07644C118.98 2.4816 118.432 2.98805 117.824 3.59579L111.62 9.87575Z" fill="#008B48"/>
<path d="M123.674 16.7128V15.8772C124.147 15.8772 124.51 15.8434 124.763 15.7759C125.033 15.6915 125.244 15.548 125.396 15.3454C125.548 15.1428 125.692 14.8558 125.827 14.4844L131.246 0H133.55L138.741 14.611C138.876 14.9656 139.011 15.2357 139.146 15.4214C139.281 15.6071 139.467 15.7337 139.703 15.8012C139.94 15.8518 140.269 15.8772 140.691 15.8772V16.7128H133.449V15.8772H134.639C134.976 15.8772 135.187 15.7759 135.272 15.5733C135.356 15.3707 135.348 15.1175 135.247 14.8136L131.195 3.31724H131.119L127.169 14.8896C127.084 15.2272 127.084 15.4805 127.169 15.6493C127.253 15.8012 127.464 15.8772 127.802 15.8772H128.941V16.7128H123.674ZM128.308 10.6861L128.561 9.79979H133.803L134.031 10.6861H128.308Z" fill="#008B48"/>
<path d="M142.018 16.7128V15.8772C142.626 15.8772 143.065 15.8434 143.335 15.7759C143.605 15.6915 143.774 15.548 143.842 15.3454C143.909 15.1428 143.943 14.8474 143.943 14.4591V2.30434C143.943 1.8823 143.901 1.56999 143.816 1.36741C143.749 1.16483 143.58 1.02978 143.31 0.962252C143.04 0.877844 142.609 0.83564 142.018 0.83564V0H149.337V0.83564C148.763 0.83564 148.341 0.877844 148.071 0.962252C147.8 1.02978 147.623 1.16483 147.539 1.36741C147.471 1.56999 147.437 1.8823 147.437 2.30434V14.4591C147.437 14.8643 147.48 15.1766 147.564 15.396C147.649 15.5986 147.817 15.7337 148.071 15.8012C148.341 15.8518 148.763 15.8772 149.337 15.8772V16.7128H142.018Z" fill="#008B48"/>
<path d="M151.391 16.7128V15.8772C151.999 15.8772 152.437 15.8434 152.708 15.7759C152.978 15.6915 153.146 15.548 153.214 15.3454C153.282 15.1428 153.315 14.8474 153.315 14.4591V2.27902C153.315 1.87386 153.273 1.56999 153.189 1.36741C153.121 1.14795 152.952 1.00446 152.682 0.93693C152.412 0.869404 151.982 0.83564 151.391 0.83564V0H159.215C160.549 0 161.646 0.160375 162.507 0.481126C163.368 0.801877 164.01 1.26612 164.432 1.87386C164.854 2.4816 165.065 3.22439 165.065 4.10224C165.065 4.92943 164.888 5.63846 164.533 6.22932C164.195 6.8033 163.714 7.26754 163.09 7.62205C162.482 7.95969 161.79 8.18759 161.013 8.30576V8.35641C161.773 8.52522 162.364 8.78689 162.786 9.1414C163.208 9.47903 163.529 9.91796 163.748 10.4582C163.968 10.9984 164.136 11.6399 164.255 12.3827L164.407 13.193C164.508 13.7332 164.643 14.2059 164.812 14.611C164.981 15.0162 165.217 15.3285 165.521 15.548C165.825 15.7674 166.221 15.8772 166.711 15.8772V16.7128H162.305C162.068 16.5271 161.849 16.2317 161.646 15.8265C161.461 15.4214 161.3 14.9402 161.165 14.3831L160.406 10.8887C160.287 10.2471 160.051 9.76602 159.697 9.44527C159.342 9.10764 158.81 8.93882 158.101 8.93882H156.81V14.4591C156.81 14.8474 156.844 15.1513 156.911 15.3707C156.995 15.5733 157.173 15.7084 157.443 15.7759C157.713 15.8434 158.127 15.8772 158.684 15.8772V16.7128H151.391ZM156.81 7.92592H158.076C159.241 7.92592 160.093 7.64738 160.633 7.09028C161.191 6.51631 161.469 5.63002 161.469 4.43143C161.469 3.26659 161.199 2.39719 160.659 1.82322C160.135 1.24924 159.3 0.962252 158.152 0.962252C157.578 0.962252 157.207 1.04666 157.038 1.21548C156.886 1.36741 156.81 1.6122 156.81 1.94983V7.92592Z" fill="#008B48"/>
<path d="M176.594 17.0167C174.196 17.0167 172.458 16.544 171.377 15.5986C170.314 14.6364 169.782 13.1001 169.782 10.9899V2.27902C169.782 1.87386 169.74 1.56999 169.655 1.36741C169.588 1.14795 169.419 1.00446 169.149 0.93693C168.896 0.869404 168.473 0.83564 167.883 0.83564V0H175.175V0.83564C174.602 0.83564 174.179 0.869404 173.909 0.93693C173.639 1.00446 173.462 1.13951 173.378 1.34209C173.31 1.54467 173.276 1.85698 173.276 2.27902V11.0912C173.276 12.1548 173.394 13.0495 173.631 13.7754C173.867 14.5013 174.239 15.05 174.745 15.4214C175.251 15.7759 175.893 15.9531 176.67 15.9531C177.463 15.9531 178.104 15.7759 178.594 15.4214C179.1 15.05 179.472 14.5098 179.708 13.8007C179.961 13.0748 180.088 12.1717 180.088 11.0912V2.27902C180.088 1.85698 180.046 1.54467 179.961 1.34209C179.894 1.13951 179.725 1.00446 179.455 0.93693C179.185 0.869404 178.754 0.83564 178.164 0.83564V0H185.456V0.83564C184.866 0.83564 184.435 0.869404 184.165 0.93693C183.895 1.00446 183.726 1.14795 183.659 1.36741C183.591 1.56999 183.557 1.87386 183.557 2.27902V10.9899C183.557 13.0833 183 14.611 181.886 15.5733C180.772 16.5356 179.008 17.0167 176.594 17.0167Z" fill="#008B48"/>
<path d="M196.198 16.7128V15.8772H196.704C197.076 15.8772 197.27 15.7759 197.287 15.5733C197.321 15.3538 197.185 15.0162 196.882 14.5604L192.729 8.1285L195.109 5.79884L199.566 12.332C200.174 13.2099 200.68 13.9105 201.085 14.4338C201.49 14.9402 201.879 15.3116 202.25 15.548C202.621 15.7674 203.052 15.8772 203.541 15.8772V16.7128H196.198ZM186.778 16.7128V15.8772C187.386 15.8772 187.825 15.8434 188.095 15.7759C188.365 15.7084 188.534 15.5733 188.601 15.3707C188.669 15.1681 188.702 14.8643 188.702 14.4591V2.30434C188.702 1.8823 188.66 1.56999 188.576 1.36741C188.508 1.16483 188.339 1.02978 188.069 0.962252C187.799 0.877844 187.369 0.83564 186.778 0.83564V0H194.096V0.83564C193.522 0.83564 193.1 0.877844 192.83 0.962252C192.56 1.02978 192.383 1.16483 192.298 1.36741C192.231 1.56999 192.197 1.8823 192.197 2.30434V14.4591C192.197 14.8643 192.231 15.1681 192.298 15.3707C192.383 15.5733 192.56 15.7084 192.83 15.7759C193.1 15.8434 193.522 15.8772 194.096 15.8772V16.7128H186.778ZM191.766 9.87575V8.58431L197.894 1.89918C198.148 1.59531 198.266 1.34209 198.249 1.13951C198.232 0.93693 198.072 0.83564 197.768 0.83564H196.932V0H202.655V0.83564C202.115 0.83564 201.6 0.93693 201.11 1.13951C200.621 1.34209 200.123 1.6544 199.616 2.07644C199.127 2.4816 198.578 2.98805 197.97 3.59579L191.766 9.87575Z" fill="#008B48"/>
<path d="M204.682 16.7128V15.8772C205.289 15.8772 205.728 15.8434 205.998 15.7759C206.269 15.6915 206.437 15.548 206.505 15.3454C206.572 15.1428 206.606 14.8474 206.606 14.4591V2.30434C206.606 1.8823 206.564 1.56999 206.48 1.36741C206.412 1.16483 206.243 1.02978 205.973 0.962252C205.703 0.877844 205.273 0.83564 204.682 0.83564V0H212V0.83564C211.426 0.83564 211.004 0.877844 210.734 0.962252C210.464 1.02978 210.286 1.16483 210.202 1.36741C210.134 1.56999 210.101 1.8823 210.101 2.30434V14.4591C210.101 14.8643 210.143 15.1766 210.227 15.396C210.312 15.5986 210.481 15.7337 210.734 15.8012C211.004 15.8518 211.426 15.8772 212 15.8772V16.7128H204.682Z" fill="#008B48"/>
<path d="M16.0294 38.912V38.3897H16.4251C16.7838 38.3897 17.0054 38.3317 17.0898 38.2156C17.1742 38.089 17.2164 37.8674 17.2164 37.5509V29.8908C17.2164 29.6271 17.1901 29.4319 17.1373 29.3053C17.0951 29.1786 16.9896 29.0942 16.8208 29.052C16.652 29.0098 16.3829 28.9887 16.0136 28.9887V28.4664H19.5271L22.3601 35.7941H22.4075L25.2088 28.4664H28.5799V28.9887C28.2317 28.9887 27.9679 29.0098 27.7886 29.052C27.6198 29.0942 27.509 29.1786 27.4562 29.3053C27.414 29.4319 27.3929 29.6271 27.3929 29.8908V37.5034C27.3929 37.7461 27.4193 37.936 27.472 38.0731C27.5248 38.1998 27.6356 38.2842 27.8044 38.3264C27.9732 38.3686 28.2317 38.3897 28.5799 38.3897V38.912H24.1168V38.3897C24.4755 38.3897 24.734 38.3686 24.8923 38.3264C25.0506 38.2736 25.1508 38.1839 25.193 38.0573C25.2458 37.9307 25.2722 37.7461 25.2722 37.5034V30.0491H25.2405L21.9486 38.8012H21.2839L17.9286 30.0966H17.9128V37.5509C17.9128 37.8991 17.955 38.1259 18.0394 38.2314C18.1238 38.3369 18.356 38.3897 18.7358 38.3897H19.3372V38.912H16.0294Z" fill="#008B48"/>
<path d="M29.8648 38.912V38.3897C30.2447 38.3897 30.5137 38.3686 30.672 38.3264C30.8408 38.2736 30.9463 38.1839 30.9885 38.0573C31.0413 37.9307 31.0676 37.7461 31.0676 37.5034V29.8908C31.0676 29.6271 31.0413 29.4319 30.9885 29.3053C30.9463 29.1786 30.8408 29.0942 30.672 29.052C30.5032 29.0098 30.2341 28.9887 29.8648 28.9887V28.4664H37.8572V31.062H37.3824C37.2558 30.5556 37.1081 30.1599 36.9393 29.875C36.781 29.5796 36.5542 29.3738 36.2587 29.2578C35.9739 29.1312 35.5676 29.0679 35.0401 29.0679H33.8531C33.6104 29.0679 33.4469 29.1101 33.3625 29.1945C33.2886 29.2683 33.2517 29.4055 33.2517 29.606V33.1036H34.9293C35.2669 33.1036 35.5254 33.0667 35.7048 32.9928C35.8842 32.9084 36.0108 32.766 36.0846 32.5655C36.1691 32.3651 36.2376 32.0854 36.2904 31.7267H36.7177V35.1611H36.2904C36.2376 34.8023 36.1691 34.528 36.0846 34.3381C36.0108 34.1376 35.8842 34.0005 35.7048 33.9266C35.5254 33.8422 35.2669 33.8 34.9293 33.8H33.2517V37.266C33.2517 37.5509 33.2833 37.7724 33.3467 37.9307C33.4205 38.0784 33.5841 38.1787 33.8373 38.2314C34.0905 38.2842 34.502 38.3105 35.0717 38.3105C35.6521 38.3105 36.1163 38.242 36.4645 38.1048C36.8232 37.9571 37.1081 37.7197 37.3191 37.3926C37.5301 37.0655 37.7042 36.6171 37.8414 36.0474H38.3162L38.1263 38.912H29.8648Z" fill="#008B48"/>
<path d="M39.3365 38.912V38.3897H39.7322C40.0909 38.3897 40.3125 38.3317 40.3969 38.2156C40.4813 38.089 40.5235 37.8674 40.5235 37.5509V29.8908C40.5235 29.6271 40.4971 29.4319 40.4444 29.3053C40.4022 29.1786 40.2966 29.0942 40.1278 29.052C39.959 29.0098 39.69 28.9887 39.3207 28.9887V28.4664H42.8342L45.6671 35.7941H45.7146L48.5159 28.4664H51.887V28.9887C51.5388 28.9887 51.275 29.0098 51.0956 29.052C50.9268 29.0942 50.816 29.1786 50.7633 29.3053C50.7211 29.4319 50.7 29.6271 50.7 29.8908V37.5034C50.7 37.7461 50.7263 37.936 50.7791 38.0731C50.8319 38.1998 50.9426 38.2842 51.1115 38.3264C51.2803 38.3686 51.5388 38.3897 51.887 38.3897V38.912H47.4239V38.3897C47.7826 38.3897 48.0411 38.3686 48.1994 38.3264C48.3576 38.2736 48.4579 38.1839 48.5001 38.0573C48.5528 37.9307 48.5792 37.7461 48.5792 37.5034V30.0491H48.5476L45.2556 38.8012H44.5909L41.2357 30.0966H41.2199V37.5509C41.2199 37.8991 41.2621 38.1259 41.3465 38.2314C41.4309 38.3369 41.663 38.3897 42.0428 38.3897H42.6443V38.912H39.3365Z" fill="#008B48"/>
<path d="M57.868 39.086C56.6969 39.086 55.7314 38.8645 54.9718 38.4213C54.2226 37.9782 53.6634 37.3504 53.2942 36.538C52.9249 35.7255 52.7402 34.7707 52.7402 33.6734C52.7402 32.8504 52.8405 32.1066 53.0409 31.4418C53.252 30.7771 53.5685 30.2074 53.9905 29.7326C54.4126 29.2578 54.9454 28.899 55.589 28.6564C56.2326 28.4031 56.9923 28.2765 57.868 28.2765C58.7332 28.2765 59.4876 28.4031 60.1312 28.6564C60.7748 28.899 61.3077 29.2578 61.7297 29.7326C62.1517 30.2074 62.463 30.7771 62.6635 31.4418C62.8745 32.1066 62.98 32.8504 62.98 33.6734C62.98 34.7707 62.7954 35.7255 62.4261 36.538C62.0568 37.3504 61.4923 37.9782 60.7326 38.4213C59.9835 38.8645 59.0286 39.086 57.868 39.086ZM57.868 38.4846C58.2373 38.4846 58.5697 38.4213 58.8651 38.2947C59.1605 38.1576 59.419 37.9624 59.6406 37.7091C59.8622 37.4454 60.0415 37.1183 60.1787 36.7279C60.3159 36.3375 60.4161 35.8891 60.4794 35.3826C60.5533 34.8762 60.5902 34.3064 60.5902 33.6734C60.5902 32.882 60.5322 32.191 60.4161 31.6001C60.3 30.9987 60.1312 30.4975 59.9097 30.0966C59.6881 29.6956 59.4032 29.3949 59.055 29.1945C58.7174 28.9834 58.3217 28.8779 57.868 28.8779C57.3932 28.8779 56.9817 28.9834 56.6336 29.1945C56.2959 29.3949 56.0163 29.6956 55.7948 30.0966C55.5732 30.4975 55.4044 30.9987 55.2883 31.6001C55.1828 32.191 55.13 32.882 55.13 33.6734C55.13 34.3064 55.1617 34.8762 55.225 35.3826C55.2989 35.8891 55.4044 36.3375 55.5415 36.7279C55.6787 37.1183 55.8581 37.4454 56.0796 37.7091C56.3012 37.9624 56.5597 38.1576 56.8551 38.2947C57.1506 38.4213 57.4882 38.4846 57.868 38.4846Z" fill="#008B48"/>
<path d="M63.6662 38.912V38.3897C64.0461 38.3897 64.3204 38.3686 64.4892 38.3264C64.658 38.2736 64.7635 38.1839 64.8057 38.0573C64.8479 37.9307 64.869 37.7461 64.869 37.5034V29.8908C64.869 29.6376 64.8427 29.4477 64.7899 29.3211C64.7477 29.1839 64.6422 29.0942 64.4734 29.052C64.3046 29.0098 64.0355 28.9887 63.6662 28.9887V28.4664H68.5566C69.3902 28.4664 70.076 28.5667 70.6141 28.7672C71.1522 28.9676 71.5531 29.2578 71.8169 29.6376C72.0807 30.0174 72.2126 30.4817 72.2126 31.0303C72.2126 31.5473 72.1018 31.9905 71.8802 32.3598C71.6692 32.7185 71.3685 33.0087 70.9781 33.2302C70.5983 33.4413 70.1657 33.5837 69.6803 33.6575V33.6892C70.1551 33.7947 70.5244 33.9583 70.7882 34.1798C71.0519 34.3908 71.2524 34.6652 71.3896 35.0028C71.5267 35.3404 71.6323 35.7414 71.7061 36.2056L71.8011 36.7121C71.8644 37.0497 71.9488 37.3451 72.0543 37.5984C72.1598 37.8516 72.3075 38.0468 72.4974 38.1839C72.6874 38.3211 72.9353 38.3897 73.2413 38.3897V38.912H70.4875C70.3398 38.7959 70.2026 38.6113 70.076 38.358C69.9599 38.1048 69.8597 37.8041 69.7753 37.4559L69.3005 35.2719C69.2266 34.8709 69.0789 34.5702 68.8573 34.3697C68.6358 34.1587 68.3034 34.0532 67.8603 34.0532H67.0531V37.5034C67.0531 37.7461 67.0742 37.936 67.1164 38.0731C67.1692 38.1998 67.28 38.2842 67.4488 38.3264C67.6176 38.3686 67.8761 38.3897 68.2243 38.3897V38.912H63.6662ZM67.0531 33.4202H67.8444C68.5725 33.4202 69.1053 33.2461 69.4429 32.8979C69.7911 32.5391 69.9652 31.9852 69.9652 31.2361C69.9652 30.5081 69.7964 29.9647 69.4587 29.606C69.1317 29.2472 68.6094 29.0679 67.8919 29.0679C67.5332 29.0679 67.3011 29.1206 67.1955 29.2261C67.1006 29.3211 67.0531 29.4741 67.0531 29.6851V33.4202Z" fill="#008B48"/>
<path d="M74.0369 38.912V38.3897C74.4168 38.3897 74.6911 38.3686 74.8599 38.3264C75.0287 38.2736 75.1342 38.1839 75.1765 38.0573C75.2187 37.9307 75.2398 37.7461 75.2398 37.5034V29.9067C75.2398 29.6429 75.2134 29.4477 75.1606 29.3211C75.1184 29.1945 75.0129 29.1101 74.8441 29.0679C74.6753 29.0151 74.4062 28.9887 74.0369 28.9887V28.4664H78.6108V28.9887C78.2521 28.9887 77.9883 29.0151 77.8195 29.0679C77.6507 29.1101 77.5399 29.1945 77.4871 29.3211C77.4449 29.4477 77.4238 29.6429 77.4238 29.9067V37.5034C77.4238 37.7566 77.4502 37.9518 77.503 38.089C77.5557 38.2156 77.6612 38.3 77.8195 38.3422C77.9883 38.3739 78.2521 38.3897 78.6108 38.3897V38.912H74.0369Z" fill="#008B48"/>
<path d="M79.3565 38.912V38.3897C79.6519 38.3897 79.8788 38.3686 80.0371 38.3264C80.2059 38.2736 80.3378 38.1839 80.4327 38.0573C80.5277 37.9307 80.6174 37.7513 80.7018 37.5192L84.0886 28.4664H85.5289L88.7733 37.5984C88.8577 37.8199 88.9421 37.9887 89.0265 38.1048C89.1109 38.2209 89.227 38.3 89.3747 38.3422C89.5224 38.3739 89.7282 38.3897 89.9919 38.3897V38.912H85.4656V38.3897H86.2094C86.4204 38.3897 86.5523 38.3264 86.6051 38.1998C86.6578 38.0732 86.6525 37.9149 86.5892 37.725L84.057 30.5397H84.0095L81.5406 37.7724C81.4878 37.9835 81.4878 38.1417 81.5406 38.2472C81.5933 38.3422 81.7252 38.3897 81.9362 38.3897H82.6484V38.912H79.3565ZM82.2528 35.1452L82.411 34.5913H85.6871L85.8296 35.1452H82.2528Z" fill="#008B48"/>
<path d="M90.8217 38.912V38.3897C91.2016 38.3897 91.4759 38.3686 91.6447 38.3264C91.8135 38.2842 91.919 38.1998 91.9612 38.0731C92.0034 37.9465 92.0245 37.7566 92.0245 37.5034V29.8908C92.0245 29.6376 91.9982 29.4477 91.9454 29.3211C91.9032 29.1839 91.7977 29.0942 91.6289 29.052C91.4601 29.0098 91.191 28.9887 90.8217 28.9887V28.4664H95.4431V28.9887C95.0632 28.9887 94.7836 29.0098 94.6043 29.052C94.4355 29.0942 94.3247 29.1839 94.2719 29.3211C94.2297 29.4477 94.2086 29.6376 94.2086 29.8908V37.2185C94.2086 37.5667 94.2508 37.8147 94.3352 37.9624C94.4196 38.1101 94.5726 38.205 94.7942 38.2472C95.0158 38.2789 95.3376 38.2947 95.7596 38.2947C96.3294 38.2947 96.7883 38.2261 97.1365 38.089C97.4953 37.9518 97.7801 37.725 97.9912 37.4084C98.2127 37.0814 98.3921 36.6382 98.5293 36.079H99.0199L98.8458 38.912H90.8217Z" fill="#008B48"/>
<path d="M109.185 39.1019C107.687 39.1019 106.6 38.8064 105.925 38.2156C105.26 37.6142 104.928 36.654 104.928 35.3352V29.8908C104.928 29.6376 104.902 29.4477 104.849 29.3211C104.807 29.1839 104.701 29.0942 104.532 29.052C104.374 29.0098 104.11 28.9887 103.741 28.9887V28.4664H108.299V28.9887C107.94 28.9887 107.677 29.0098 107.508 29.052C107.339 29.0942 107.228 29.1786 107.175 29.3053C107.133 29.4319 107.112 29.6271 107.112 29.8908V35.3985C107.112 36.0632 107.186 36.6224 107.334 37.0761C107.481 37.5298 107.714 37.8727 108.03 38.1048C108.347 38.3264 108.748 38.4372 109.233 38.4372C109.729 38.4372 110.13 38.3264 110.436 38.1048C110.752 37.8727 110.984 37.535 111.132 37.0919C111.29 36.6382 111.37 36.0737 111.37 35.3985V29.8908C111.37 29.6271 111.343 29.4319 111.29 29.3053C111.248 29.1786 111.143 29.0942 110.974 29.052C110.805 29.0098 110.536 28.9887 110.167 28.9887V28.4664H114.725V28.9887C114.355 28.9887 114.086 29.0098 113.918 29.052C113.749 29.0942 113.643 29.1839 113.601 29.3211C113.559 29.4477 113.538 29.6376 113.538 29.8908V35.3352C113.538 36.6435 113.19 37.5984 112.493 38.1998C111.797 38.8012 110.694 39.1019 109.185 39.1019Z" fill="#008B48"/>
<path d="M123.393 39.0069L117.712 30.334H117.68V37.5667C117.68 37.8621 117.738 38.0732 117.854 38.1998C117.97 38.3264 118.176 38.3897 118.471 38.3897H119.104V38.912H115.797V38.3897H116.24C116.736 38.3897 116.984 38.1154 116.984 37.5667V29.8908C116.984 29.6271 116.957 29.4319 116.904 29.3053C116.862 29.1786 116.757 29.0942 116.588 29.052C116.419 29.0098 116.15 28.9887 115.781 28.9887V28.4664H119.057L124.058 36.1581H124.105V29.7484C124.105 29.2419 123.836 28.9887 123.298 28.9887H122.681V28.4664H125.941V28.9887H125.53C125.044 28.9887 124.802 29.2419 124.802 29.7484V39.0069H123.393Z" fill="#008B48"/>
<path d="M127.158 38.912V38.3897C127.538 38.3897 127.812 38.3686 127.981 38.3264C128.15 38.2736 128.255 38.1839 128.297 38.0573C128.34 37.9307 128.361 37.7461 128.361 37.5034V29.9067C128.361 29.6429 128.334 29.4477 128.282 29.3211C128.239 29.1945 128.134 29.1101 127.965 29.0679C127.796 29.0151 127.527 28.9887 127.158 28.9887V28.4664H131.732V28.9887C131.373 28.9887 131.109 29.0151 130.94 29.0679C130.772 29.1101 130.661 29.1945 130.608 29.3211C130.566 29.4477 130.545 29.6429 130.545 29.9067V37.5034C130.545 37.7566 130.571 37.9518 130.624 38.089C130.677 38.2156 130.782 38.3 130.94 38.3422C131.109 38.3739 131.373 38.3897 131.732 38.3897V38.912H127.158Z" fill="#008B48"/>
<path d="M136.631 38.912L133.466 29.7801C133.403 29.569 133.324 29.4108 133.229 29.3053C133.144 29.1892 133.028 29.1101 132.881 29.0679C132.743 29.0151 132.543 28.9887 132.279 28.9887V28.4664H136.742V28.9887H136.062C135.861 28.9887 135.729 29.0415 135.666 29.147C135.603 29.2419 135.608 29.3949 135.682 29.606L138.103 36.7121H138.167L140.446 29.7326C140.53 29.4793 140.546 29.2947 140.493 29.1786C140.451 29.052 140.319 28.9887 140.097 28.9887H139.369V28.4664H142.566V28.9887C142.218 28.9887 141.949 29.0573 141.759 29.1945C141.58 29.3211 141.427 29.5585 141.3 29.9067L138.072 38.912H136.631Z" fill="#008B48"/>
<path d="M142.83 38.912V38.3897C143.21 38.3897 143.479 38.3686 143.637 38.3264C143.806 38.2736 143.911 38.1839 143.954 38.0573C144.006 37.9307 144.033 37.7461 144.033 37.5034V29.8908C144.033 29.6271 144.006 29.4319 143.954 29.3053C143.911 29.1786 143.806 29.0942 143.637 29.052C143.468 29.0098 143.199 28.9887 142.83 28.9887V28.4664H150.822V31.062H150.347C150.221 30.5556 150.073 30.1599 149.904 29.875C149.746 29.5796 149.519 29.3738 149.224 29.2578C148.939 29.1312 148.533 29.0679 148.005 29.0679H146.818C146.575 29.0679 146.412 29.1101 146.328 29.1945C146.254 29.2683 146.217 29.4055 146.217 29.606V33.1036H147.894C148.232 33.1036 148.49 33.0667 148.67 32.9928C148.849 32.9084 148.976 32.766 149.05 32.5655C149.134 32.3651 149.203 32.0854 149.255 31.7267H149.683V35.1611H149.255C149.203 34.8023 149.134 34.528 149.05 34.3381C148.976 34.1376 148.849 34.0005 148.67 33.9266C148.49 33.8422 148.232 33.8 147.894 33.8H146.217V37.266C146.217 37.5509 146.248 37.7724 146.312 37.9307C146.386 38.0784 146.549 38.1787 146.802 38.2314C147.056 38.2842 147.467 38.3105 148.037 38.3105C148.617 38.3105 149.081 38.242 149.43 38.1048C149.788 37.9571 150.073 37.7197 150.284 37.3926C150.495 37.0655 150.669 36.6171 150.806 36.0474H151.281L151.091 38.912H142.83Z" fill="#008B48"/>
<path d="M152.412 38.912V38.3897C152.792 38.3897 153.066 38.3686 153.235 38.3264C153.404 38.2736 153.51 38.1839 153.552 38.0573C153.594 37.9307 153.615 37.7461 153.615 37.5034V29.8908C153.615 29.6376 153.589 29.4477 153.536 29.3211C153.494 29.1839 153.388 29.0942 153.219 29.052C153.051 29.0098 152.782 28.9887 152.412 28.9887V28.4664H157.303C158.136 28.4664 158.822 28.5667 159.36 28.7672C159.898 28.9676 160.299 29.2578 160.563 29.6376C160.827 30.0174 160.959 30.4817 160.959 31.0303C160.959 31.5473 160.848 31.9905 160.626 32.3598C160.415 32.7185 160.115 33.0087 159.724 33.2302C159.344 33.4413 158.912 33.5837 158.426 33.6575V33.6892C158.901 33.7947 159.27 33.9583 159.534 34.1798C159.798 34.3908 159.999 34.6652 160.136 35.0028C160.273 35.3404 160.378 35.7414 160.452 36.2056L160.547 36.7121C160.61 37.0497 160.695 37.3451 160.8 37.5984C160.906 37.8516 161.054 38.0468 161.244 38.1839C161.433 38.3211 161.681 38.3897 161.987 38.3897V38.912H159.234C159.086 38.7959 158.949 38.6113 158.822 38.358C158.706 38.1048 158.606 37.8041 158.521 37.4559L158.047 35.2719C157.973 34.8709 157.825 34.5702 157.603 34.3697C157.382 34.1587 157.05 34.0532 156.606 34.0532H155.799V37.5034C155.799 37.7461 155.82 37.936 155.863 38.0731C155.915 38.1998 156.026 38.2842 156.195 38.3264C156.364 38.3686 156.622 38.3897 156.97 38.3897V38.912H152.412ZM155.799 33.4202H156.591C157.319 33.4202 157.851 33.2461 158.189 32.8979C158.537 32.5391 158.711 31.9852 158.711 31.2361C158.711 30.5081 158.542 29.9647 158.205 29.606C157.878 29.2472 157.355 29.0679 156.638 29.0679C156.279 29.0679 156.047 29.1206 155.942 29.2261C155.847 29.3211 155.799 29.4741 155.799 29.6851V33.4202Z" fill="#008B48"/>
<path d="M166.17 39.1019C165.695 39.1019 165.31 39.0597 165.015 38.9753C164.719 38.9014 164.476 38.8275 164.287 38.7537C164.107 38.6693 163.944 38.6271 163.796 38.6271C163.69 38.6271 163.595 38.6587 163.511 38.722C163.437 38.7748 163.384 38.8381 163.353 38.912H162.957L162.751 35.7625H163.226C163.311 36.0474 163.427 36.3533 163.574 36.6804C163.722 36.9969 163.912 37.2977 164.144 37.5825C164.387 37.8569 164.672 38.0837 164.999 38.2631C165.326 38.4319 165.706 38.5163 166.138 38.5163C166.508 38.5163 166.835 38.453 167.12 38.3264C167.404 38.1998 167.631 38.0046 167.8 37.7408C167.969 37.4665 168.053 37.1341 168.053 36.7437C168.053 36.2584 167.906 35.8627 167.61 35.5567C167.315 35.2402 166.872 34.9712 166.281 34.7496L165.695 34.528C165.178 34.317 164.703 34.0796 164.271 33.8158C163.849 33.552 163.511 33.2197 163.258 32.8187C163.005 32.4178 162.878 31.9219 162.878 31.3311C162.878 30.7296 163.015 30.2021 163.289 29.7484C163.564 29.2947 163.954 28.936 164.461 28.6722C164.978 28.4084 165.584 28.2765 166.281 28.2765C166.682 28.2765 167.009 28.3135 167.262 28.3873C167.526 28.4506 167.747 28.5192 167.927 28.5931C168.106 28.6669 168.27 28.7038 168.417 28.7038C168.512 28.7038 168.581 28.6827 168.623 28.6405C168.676 28.5878 168.718 28.5087 168.75 28.4031H169.129L169.288 31.2203H168.813C168.707 30.7033 168.544 30.2707 168.322 29.9225C168.101 29.5743 167.826 29.3105 167.499 29.1312C167.183 28.9412 166.819 28.8463 166.407 28.8463C165.859 28.8463 165.416 28.9993 165.078 29.3053C164.751 29.6007 164.587 29.9805 164.587 30.4448C164.587 30.8352 164.693 31.1517 164.904 31.3944C165.125 31.637 165.394 31.8375 165.711 31.9958C166.027 32.1435 166.328 32.2806 166.613 32.4073L167.373 32.6921C167.858 32.8715 168.285 33.0983 168.655 33.3727C169.035 33.647 169.335 33.9794 169.557 34.3697C169.778 34.7601 169.889 35.2402 169.889 35.81C169.889 36.2742 169.81 36.7068 169.652 37.1077C169.494 37.5087 169.256 37.8621 168.94 38.1681C168.634 38.4635 168.248 38.6957 167.784 38.8645C167.32 39.0227 166.782 39.1019 166.17 39.1019Z" fill="#008B48"/>
<path d="M171.098 38.912V38.3897C171.478 38.3897 171.752 38.3686 171.921 38.3264C172.09 38.2736 172.195 38.1839 172.238 38.0573C172.28 37.9307 172.301 37.7461 172.301 37.5034V29.9067C172.301 29.6429 172.275 29.4477 172.222 29.3211C172.18 29.1945 172.074 29.1101 171.905 29.0679C171.736 29.0151 171.467 28.9887 171.098 28.9887V28.4664H175.672V28.9887C175.313 28.9887 175.05 29.0151 174.881 29.0679C174.712 29.1101 174.601 29.1945 174.548 29.3211C174.506 29.4477 174.485 29.6429 174.485 29.9067V37.5034C174.485 37.7566 174.511 37.9518 174.564 38.089C174.617 38.2156 174.722 38.3 174.881 38.3422C175.05 38.3739 175.313 38.3897 175.672 38.3897V38.912H171.098Z" fill="#008B48"/>
<path d="M178.665 38.912V38.3897C179.098 38.3897 179.409 38.3686 179.599 38.3264C179.789 38.2842 179.905 38.205 179.947 38.089C180 37.9729 180.026 37.783 180.026 37.5192V29.052H179.282C178.808 29.052 178.428 29.1259 178.143 29.2736C177.869 29.4108 177.652 29.6376 177.494 29.9541C177.346 30.2707 177.22 30.6822 177.114 31.1886H176.639V28.4664H185.597V31.1886H185.122C185.017 30.6505 184.88 30.2285 184.711 29.9225C184.553 29.606 184.331 29.3844 184.046 29.2578C183.772 29.1206 183.403 29.052 182.938 29.052H182.21V37.5192C182.21 37.783 182.242 37.9782 182.305 38.1048C182.369 38.2209 182.495 38.3 182.685 38.3422C182.886 38.3739 183.181 38.3897 183.571 38.3897V38.912H178.665Z" fill="#008B48"/>
<path d="M188.643 38.912V38.3897C189.065 38.3897 189.366 38.3686 189.545 38.3264C189.735 38.2736 189.851 38.1839 189.893 38.0573C189.946 37.9202 189.972 37.7302 189.972 37.4876V34.8604L187.424 29.7801C187.329 29.5796 187.229 29.4213 187.124 29.3053C187.029 29.1892 186.902 29.1101 186.744 29.0679C186.596 29.0151 186.39 28.9887 186.126 28.9887V28.4664H190.764V28.9887H190.051C189.851 28.9887 189.73 29.0415 189.687 29.147C189.656 29.2525 189.687 29.416 189.782 29.6376L191.761 33.8633H191.792L193.66 29.7484C193.744 29.569 193.781 29.4266 193.771 29.3211C193.76 29.2156 193.718 29.1364 193.644 29.0837C193.57 29.0204 193.47 28.9887 193.343 28.9887H192.694V28.4664H195.986V28.9887C195.701 28.9887 195.475 29.0151 195.306 29.0679C195.137 29.1206 194.995 29.2103 194.879 29.3369C194.762 29.4635 194.641 29.6482 194.515 29.8908L192.077 34.6863V37.4876C192.077 37.7408 192.109 37.936 192.172 38.0731C192.235 38.1998 192.362 38.2842 192.552 38.3264C192.752 38.3686 193.058 38.3897 193.47 38.3897V38.912H188.643Z" fill="#008B48"/>
</svg>
