<svg width="20" height="20" viewBox="0 0 20 20" fill="none" xmlns="http://www.w3.org/2000/svg">
<path fill-rule="evenodd" clip-rule="evenodd" d="M0.833384 9.16665C0.833384 4.56428 4.56434 0.83332 9.16671 0.83332C13.769 0.83332 17.5 4.56428 17.5 9.16665C17.5 11.1677 16.7947 13.0041 15.6191 14.4406L19.1667 17.9881L17.9882 19.1666L14.4406 15.6191C13.0041 16.7946 11.1678 17.5 9.16671 17.5C4.56434 17.5 0.833384 13.769 0.833384 9.16665ZM9.16671 2.49999C5.48481 2.49999 2.50005 5.48475 2.50005 9.16665C2.50005 12.8486 5.48481 15.8333 9.16671 15.8333C12.8486 15.8333 15.8334 12.8486 15.8334 9.16665C15.8334 5.48475 12.8486 2.49999 9.16671 2.49999Z" fill="black"/>
</svg>
