<svg width="96" height="96" viewBox="0 0 96 96" fill="none" xmlns="http://www.w3.org/2000/svg">
<path d="M48 82C55.2388 82 62.1804 81.2848 68.6136 79.9736C76.6492 78.3356 80.6672 77.5164 84.3336 72.8024C88 68.0884 88 62.6772 88 51.854V44.146C88 33.3229 88 27.9115 84.3336 23.1975C80.6672 18.4835 76.6492 17.6645 68.6136 16.0265C62.1804 14.7151 55.2388 14 48 14C40.7612 14 33.8196 14.7151 27.3862 16.0265C19.3506 17.6645 15.3328 18.4835 11.6664 23.1975C8 27.9115 8 33.3229 8 44.146V51.854C8 62.6772 8 68.0884 11.6664 72.8024C15.3328 77.5164 19.3506 78.3356 27.3862 79.9736C33.8196 81.2848 40.7612 82 48 82Z" fill="black" stroke="black" stroke-width="6"/>
<path d="M61.9285 49.0116C61.3349 51.4348 58.1765 53.1752 51.8597 56.6564C44.9889 60.442 41.5537 62.3352 38.7713 61.606C37.8289 61.3588 36.9609 60.9244 36.232 60.3352C34.0801 58.5956 34.0801 54.9836 34.0801 47.76C34.0801 40.5364 34.0801 36.9245 36.232 35.1847C36.9609 34.5954 37.8289 34.1612 38.7713 33.9142C41.5537 33.1848 44.9889 35.0778 51.8597 38.8637C58.1765 42.3448 61.3349 44.0852 61.9285 46.5084C62.1305 47.3332 62.1305 48.1868 61.9285 49.0116Z" fill="white" stroke="black" stroke-width="6" stroke-linejoin="round"/>
</svg>
