<svg width="17" height="17" viewBox="0 0 17 17" fill="none" xmlns="http://www.w3.org/2000/svg">
<path d="M4.65909 10.9663C3.65696 11.563 1.02945 12.7814 2.62979 14.3061C3.41153 15.0509 4.2822 15.5835 5.37684 15.5835H11.6231C12.7177 15.5835 13.5884 15.0509 14.3701 14.3061C15.9705 12.7814 13.343 11.563 12.3408 10.9663C9.99086 9.56702 7.00906 9.56702 4.65909 10.9663Z" stroke="#676767" stroke-width="1.008" stroke-linecap="round" stroke-linejoin="round"/>
<path d="M11.6875 4.6044C11.6875 6.3648 10.2604 7.79189 8.50001 7.79189C6.73961 7.79189 5.31252 6.3648 5.31252 4.6044C5.31252 2.844 6.73961 1.41691 8.50001 1.41691C10.2604 1.41691 11.6875 2.844 11.6875 4.6044Z" stroke="#676767" stroke-width="1.008"/>
</svg>
