<svg width="39" height="31" viewBox="0 0 39 31" fill="none" xmlns="http://www.w3.org/2000/svg">
<path d="M34.2868 7.69392C34.2868 8.06742 34.2868 8.36621 34.2868 8.7397C34.2868 19.1228 26.4434 30.9999 12.0266 30.9999C7.54466 30.9999 3.43624 29.73 9.73116e-05 27.4891C0.597687 27.5638 1.19528 27.6385 1.86756 27.6385C5.5278 27.6385 8.88924 26.3686 11.5784 24.277C8.14225 24.2023 5.229 21.9614 4.25792 18.824C4.78081 18.8987 5.229 18.9734 5.75189 18.9734C6.42418 18.9734 7.17117 18.824 7.76876 18.6746C4.18322 17.9276 1.49407 14.7903 1.49407 10.9807V10.906C2.53985 11.5036 3.80973 11.8023 5.07961 11.877C2.91334 10.4578 1.56877 8.06742 1.56877 5.37827C1.56877 3.88429 1.94226 2.53972 2.61455 1.41924C6.49888 6.12525 12.3254 9.2626 18.8242 9.63609C18.6748 9.0385 18.6001 8.44091 18.6001 7.84332C18.6001 3.5108 22.1109 -3.72297e-05 26.4434 -3.72297e-05C28.6844 -3.72297e-05 30.7012 0.896347 32.1952 2.46502C33.9133 2.09152 35.6314 1.41924 37.1253 0.522853C36.5277 2.39032 35.3326 3.88429 33.6892 4.85537C35.2579 4.70598 36.8265 4.25779 38.1711 3.6602C37.1253 5.22887 35.7808 6.57344 34.2868 7.69392Z" fill="white"/>
</svg>
