<svg width="75" height="72" viewBox="0 0 75 72" fill="none" xmlns="http://www.w3.org/2000/svg">
<g clip-path="url(#clip0_0_164)">
<rect opacity="0.1" width="70.6355" height="70.6355" rx="35" fill="white"/>
</g>
<path d="M34.8132 27.3997C39.5409 27.3997 43.4431 31.3019 43.4431 36.0296C43.4431 40.8323 39.5409 44.6594 34.8132 44.6594C30.0105 44.6594 26.1833 40.8323 26.1833 36.0296C26.1833 31.3019 30.0105 27.3997 34.8132 27.3997ZM34.8132 41.6577C37.89 41.6577 40.3664 39.1813 40.3664 36.0296C40.3664 32.9528 37.89 30.4764 34.8132 30.4764C31.6614 30.4764 29.185 32.9528 29.185 36.0296C29.185 39.1813 31.7365 41.6577 34.8132 41.6577ZM45.7694 27.0995C45.7694 28.2251 44.8689 29.1256 43.7433 29.1256C42.6176 29.1256 41.7171 28.2251 41.7171 27.0995C41.7171 25.9739 42.6176 25.0734 43.7433 25.0734C44.8689 25.0734 45.7694 25.9739 45.7694 27.0995ZM51.4726 29.1256C51.6227 31.9022 51.6227 40.2319 51.4726 43.0085C51.3226 45.71 50.7222 48.0363 48.7711 50.0625C46.82 52.0136 44.4187 52.6139 41.7171 52.764C38.9406 52.9141 30.6109 52.9141 27.8343 52.764C25.1328 52.6139 22.8064 52.0136 20.7803 50.0625C18.8292 48.0363 18.2289 45.71 18.0788 43.0085C17.9287 40.2319 17.9287 31.9022 18.0788 29.1256C18.2289 26.4241 18.8292 24.0228 20.7803 22.0717C22.8064 20.1206 25.1328 19.5202 27.8343 19.3701C30.6109 19.22 38.9406 19.22 41.7171 19.3701C44.4187 19.5202 46.82 20.1206 48.7711 22.0717C50.7222 24.0228 51.3226 26.4241 51.4726 29.1256ZM47.8706 45.9351C48.7711 43.7589 48.546 38.506 48.546 36.0296C48.546 33.6282 48.7711 28.3752 47.8706 26.124C47.2703 24.6981 46.1446 23.4975 44.7188 22.9722C42.4676 22.0717 37.2146 22.2968 34.8132 22.2968C32.3368 22.2968 27.0839 22.0717 24.9076 22.9722C23.4068 23.5725 22.2811 24.6981 21.6808 26.124C20.7803 28.3752 21.0054 33.6282 21.0054 36.0296C21.0054 38.506 20.7803 43.7589 21.6808 45.9351C22.2811 47.436 23.4068 48.5616 24.9076 49.162C27.0839 50.0625 32.3368 49.8374 34.8132 49.8374C37.2146 49.8374 42.4676 50.0625 44.7188 49.162C46.1446 48.5616 47.3453 47.436 47.8706 45.9351Z" fill="white"/>
<defs>
<clipPath id="clip0_0_164">
<rect width="74.3253" height="71.2284" fill="white" transform="scale(1.00908)"/>
</clipPath>
</defs>
</svg>
