<svg width="20" height="20" viewBox="0 0 20 20" fill="none" xmlns="http://www.w3.org/2000/svg">
<path fill-rule="evenodd" clip-rule="evenodd" d="M12.2352 2.32235C10.6054 2.28145 9.39458 2.28146 7.76474 2.32235L7.70237 2.32392C6.44457 2.35544 5.40967 2.38138 4.57553 2.52647C3.69023 2.68046 2.94896 2.98035 2.32113 3.60979C1.69658 4.23593 1.39754 4.96551 1.24605 5.83681C1.10387 6.65449 1.08236 7.66353 1.05631 8.88475L1.05497 8.94759C1.03722 9.77925 1.03723 10.2208 1.05499 11.0524L1.05633 11.1153C1.08236 12.3365 1.10388 13.3455 1.24606 14.1632C1.39756 15.0345 1.6966 15.7641 2.32114 16.3902C2.94898 17.0197 3.69024 17.3196 4.57555 17.4736C5.40968 17.6187 6.44458 17.6446 7.70238 17.6761L7.76476 17.6777C9.39458 17.7186 10.6054 17.7186 12.2352 17.6777L12.2976 17.6761C13.5554 17.6446 14.5903 17.6186 15.4245 17.4735C16.3097 17.3196 17.051 17.0197 17.6788 16.3902C18.3034 15.7641 18.6025 15.0345 18.7539 14.1632C18.8962 13.3455 18.9177 12.3365 18.9437 11.1153L18.945 11.0524C18.9627 10.2208 18.9627 9.77925 18.945 8.94759L18.9437 8.88484C18.9177 7.66356 18.8961 6.65449 18.7539 5.83681C18.6024 4.96551 18.3034 4.23593 17.6788 3.60979C17.3261 3.25607 16.9374 3.00642 16.5075 2.82825C16.4421 2.79254 16.372 2.76562 16.2989 2.74843C16.0241 2.65154 15.733 2.58014 15.4244 2.52647C14.5903 2.38138 13.5554 2.35544 12.2976 2.32391L12.2352 2.32235ZM17.2332 7.37525C17.217 7.03733 17.2089 6.86837 17.0866 6.80091C16.9642 6.73345 16.8137 6.81869 16.5129 6.98915L12.9832 8.98917C11.9001 9.60284 10.9842 10 9.99983 10C9.01549 10 8.09954 9.60284 7.01654 8.98917L3.48704 6.98933C3.18619 6.81886 3.03576 6.73363 2.9134 6.80109C2.79103 6.86855 2.78297 7.03751 2.76686 7.37545C2.74513 7.83087 2.73336 8.35884 2.72002 8.98309C2.70277 9.791 2.70278 10.209 2.72004 11.0169C2.7478 12.3169 2.76884 13.1994 2.88693 13.8786C2.99813 14.5182 3.18365 14.8981 3.50101 15.2162C3.81508 15.5312 4.20022 15.7198 4.86129 15.8348C5.55978 15.9563 6.4708 15.9813 7.80659 16.0148C9.40849 16.055 10.5915 16.055 12.1934 16.0148C13.5292 15.9813 14.4402 15.9563 15.1387 15.8348C15.7997 15.7198 16.1849 15.5312 16.499 15.2162C16.8163 14.8981 17.0019 14.5182 17.1131 13.8786C17.2312 13.1994 17.2522 12.3169 17.28 11.0169C17.2972 10.209 17.2972 9.791 17.28 8.98309C17.2667 8.35875 17.2548 7.83073 17.2332 7.37525Z" fill="black"/>
</svg>
