<svg width="37" height="37" viewBox="0 0 37 37" fill="none" xmlns="http://www.w3.org/2000/svg">
<path d="M36.9999 18.5C36.9999 27.75 30.2117 35.4334 21.3347 36.7761V23.871H25.6613L26.4818 18.5H21.3347V15.0686C21.3347 13.5766 22.0806 12.1593 24.3931 12.1593H26.7056V7.60891C26.7056 7.60891 24.6169 7.23593 22.5282 7.23593C18.3508 7.23593 15.5907 9.84681 15.5907 14.4718V18.5H10.8912V23.871H15.5907V36.7761C6.71375 35.4334 6.52143e-05 27.75 6.52143e-05 18.5C6.52143e-05 8.28028 8.28028 6.80967e-05 18.5 6.80967e-05C28.7197 6.80967e-05 36.9999 8.28028 36.9999 18.5Z" fill="white"/>
</svg>
